<svg class="animated" id="freepik_stories-ramen" xmlns="http://www.w3.org/2000/svg" viewBox="0 0 500 500" version="1.1" xmlns:xlink="http://www.w3.org/1999/xlink" xmlns:svgjs="http://svgjs.com/svgjs"><style>svg#freepik_stories-ramen:not(.animated) .animable {opacity: 0;}svg#freepik_stories-ramen.animated #freepik--Narutomaki--inject-211 {animation: 1.5s Infinite  linear floating;animation-delay: 0s;}svg#freepik_stories-ramen.animated #freepik--Leek--inject-211 {animation: 1.5s Infinite  linear floating;animation-delay: 0s;}svg#freepik_stories-ramen.animated #freepik--Chashu--inject-211 {animation: 1.5s Infinite  linear floating;animation-delay: 0s;}svg#freepik_stories-ramen.animated #freepik--Egg--inject-211 {animation: 1.5s Infinite  linear floating;animation-delay: 0s;}svg#freepik_stories-ramen.animated #freepik--Ramen--inject-211 {animation: 1.5s Infinite  linear heartbeat;animation-delay: 0s;}svg#freepik_stories-ramen.animated #freepik--Character--inject-211 {animation: 1.5s Infinite  linear wind;animation-delay: 0s;}            @keyframes floating {                0% {                    opacity: 1;                    transform: translateY(0px);                }                50% {                    transform: translateY(-10px);                }                100% {                    opacity: 1;                    transform: translateY(0px);                }            }                    @keyframes heartbeat {                0% {                    transform: scale(1);                }                10% {                    transform: scale(1.1);                }                30% {                    transform: scale(1);                }                40% {                    transform: scale(1);                }                50% {                    transform: scale(1.1);                }                60% {                    transform: scale(1);                }                100% {                    transform: scale(1);                }            }                    @keyframes wind {                0% {                    transform: rotate( 0deg );                }                25% {                    transform: rotate( 1deg );                }                75% {                    transform: rotate( -1deg );                }            }        </style><g id="freepik--background-complete--inject-211" class="animable" style="transform-origin: 250px 228.23px;"><rect x="416.78" y="398.49" width="33.12" height="0.25" style="fill: rgb(235, 235, 235); transform-origin: 433.34px 398.615px;" id="el0f2jlceggfon" class="animable"></rect><rect x="322.53" y="401.21" width="8.69" height="0.25" style="fill: rgb(235, 235, 235); transform-origin: 326.875px 401.335px;" id="eln9fdu2sny5" class="animable"></rect><rect x="396.59" y="389.21" width="19.19" height="0.25" style="fill: rgb(235, 235, 235); transform-origin: 406.185px 389.335px;" id="el9lr4z56n1u" class="animable"></rect><rect x="52.46" y="390.89" width="43.19" height="0.25" style="fill: rgb(235, 235, 235); transform-origin: 74.055px 391.015px;" id="elj4qb7wo2y3l" class="animable"></rect><rect x="104.56" y="390.89" width="6.33" height="0.25" style="fill: rgb(235, 235, 235); transform-origin: 107.725px 391.015px;" id="el0dmsw1gvkouh" class="animable"></rect><rect x="131.47" y="395.11" width="93.68" height="0.25" style="fill: rgb(235, 235, 235); transform-origin: 178.31px 395.235px;" id="elef0485dhidf" class="animable"></rect><path d="M237,337.8H43.92a5.71,5.71,0,0,1-5.71-5.71V60.66A5.71,5.71,0,0,1,43.92,55H237a5.71,5.71,0,0,1,5.71,5.71V332.09A5.71,5.71,0,0,1,237,337.8ZM43.92,55.2a5.47,5.47,0,0,0-5.46,5.46V332.09a5.47,5.47,0,0,0,5.46,5.46H237a5.47,5.47,0,0,0,5.46-5.46V60.66A5.47,5.47,0,0,0,237,55.2Z" style="fill: rgb(235, 235, 235); transform-origin: 140.46px 196.4px;" id="el9z4pkua9z6" class="animable"></path><path d="M453.31,337.8H260.21a5.72,5.72,0,0,1-5.71-5.71V60.66A5.72,5.72,0,0,1,260.21,55h193.1A5.71,5.71,0,0,1,459,60.66V332.09A5.71,5.71,0,0,1,453.31,337.8ZM260.21,55.2a5.47,5.47,0,0,0-5.46,5.46V332.09a5.47,5.47,0,0,0,5.46,5.46h193.1a5.47,5.47,0,0,0,5.46-5.46V60.66a5.47,5.47,0,0,0-5.46-5.46Z" style="fill: rgb(235, 235, 235); transform-origin: 356.75px 196.4px;" id="el882a6nbhi0w" class="animable"></path><rect y="382.4" width="500" height="0.25" style="fill: rgb(235, 235, 235); transform-origin: 250px 382.525px;" id="el2qzyso8y6zt" class="animable"></rect><path d="M413.9,104.53H72.41a4.15,4.15,0,0,1-4.15-4.15h0a4.15,4.15,0,0,1,4.15-4.15H413.9a4.15,4.15,0,0,1,4.15,4.15h0A4.15,4.15,0,0,1,413.9,104.53Z" style="fill: rgb(230, 230, 230); transform-origin: 243.155px 100.38px;" id="eltxednve1ufb" class="animable"></path><polygon points="152.02 109.53 152.02 94.61 141.36 94.61 141.36 109.53 97.02 109.53 97.02 94.61 86.36 94.61 86.36 109.53 83.61 109.53 83.61 193.97 154.76 193.97 154.76 109.53 152.02 109.53" style="fill: rgb(245, 245, 245); transform-origin: 119.185px 144.29px;" id="elyk5xo56bpdo" class="animable"></polygon><polygon points="234.66 109.53 234.66 94.61 224 94.61 224 109.53 179.66 109.53 179.66 94.61 169 94.61 169 109.53 166.26 109.53 166.26 193.97 237.41 193.97 237.41 109.53 234.66 109.53" style="fill: rgb(245, 245, 245); transform-origin: 201.835px 144.29px;" id="elq0f0wowl5re" class="animable"></polygon><polygon points="317.31 109.53 317.31 94.61 306.64 94.61 306.64 109.53 262.31 109.53 262.31 94.61 251.64 94.61 251.64 109.53 248.9 109.53 248.9 193.97 320.05 193.97 320.05 109.53 317.31 109.53" style="fill: rgb(245, 245, 245); transform-origin: 284.475px 144.29px;" id="ely8ex04toqj" class="animable"></polygon><polygon points="399.95 109.53 399.95 94.61 389.28 94.61 389.28 109.53 344.95 109.53 344.95 94.61 334.28 94.61 334.28 109.53 331.54 109.53 331.54 193.97 402.69 193.97 402.69 109.53 399.95 109.53" style="fill: rgb(245, 245, 245); transform-origin: 367.115px 144.29px;" id="ell1tuwx1b0k8" class="animable"></polygon><path d="M414.48,130.43l-9-14.91a1.27,1.27,0,0,0,0-.28V96.7a1.58,1.58,0,0,0-3.16,0v18.54a2.4,2.4,0,0,0,0,.28l-8.95,14.91a1.18,1.18,0,0,0,2,1.2L404,117.54l8.46,14.09A1.18,1.18,0,0,0,414.48,130.43Z" style="fill: rgb(224, 224, 224); transform-origin: 403.938px 113.617px;" id="el6t5lf26hgsc" class="animable"></path><path d="M424,175.66c0,30.78-8.85,32.68-19.76,32.68s-19.76-1.9-19.76-32.68v-9.73c0-30.78,8.85-32.68,19.76-32.68S424,135.15,424,165.93Z" style="fill: rgb(235, 235, 235); transform-origin: 404.24px 170.795px;" id="elc78kmxasmb5" class="animable"></path><rect x="391.09" y="129.12" width="26.29" height="5.78" rx="2.27" style="fill: rgb(224, 224, 224); transform-origin: 404.235px 132.01px;" id="el4ldfm88aqve" class="animable"></rect><rect x="391.09" y="206.68" width="26.29" height="6.84" rx="2.27" style="fill: rgb(224, 224, 224); transform-origin: 404.235px 210.1px;" id="elpmcba5ncaw8" class="animable"></rect><path d="M388.86,172.37H419.1a1.58,1.58,0,0,0,0-3.15H388.86a1.58,1.58,0,0,0,0,3.15Z" style="fill: rgb(250, 250, 250); transform-origin: 403.98px 170.795px;" id="el01ivy2mfebms" class="animable"></path><path d="M392,154.43h23.92a1.58,1.58,0,0,0,0-3.16H392a1.58,1.58,0,0,0,0,3.16Z" style="fill: rgb(250, 250, 250); transform-origin: 403.96px 152.85px;" id="elqsdcgct2y88" class="animable"></path><path d="M392,190.32h23.92a1.58,1.58,0,0,0,0-3.16H392a1.58,1.58,0,0,0,0,3.16Z" style="fill: rgb(250, 250, 250); transform-origin: 403.96px 188.74px;" id="elrgecv9c8ble" class="animable"></path><path d="M86.78,365.57v16.58H96.4a5.4,5.4,0,0,1,5.36-4.76H396.69a5.41,5.41,0,0,1,5.37,4.76h9.62V365.57Z" style="fill: rgb(240, 240, 240); transform-origin: 249.23px 373.86px;" id="el27w7vgzwb7p" class="animable"></path><rect x="86.78" y="281.72" width="324.9" height="88.67" style="fill: rgb(245, 245, 245); transform-origin: 249.23px 326.055px;" id="elx1fi95prwxb" class="animable"></rect><rect x="81.71" y="272.89" width="335.03" height="8.83" style="fill: rgb(245, 245, 245); transform-origin: 249.225px 277.305px;" id="el8tievxnjw0f" class="animable"></rect><rect x="86.78" y="281.72" width="324.9" height="7.26" style="fill: rgb(240, 240, 240); transform-origin: 249.23px 285.35px;" id="el2k5u9rhbr0e" class="animable"></rect><rect x="86.78" y="317.53" width="324.9" height="5.36" style="fill: rgb(250, 250, 250); transform-origin: 249.23px 320.21px;" id="el1q4kmzfuq0z" class="animable"></rect><rect x="86.78" y="353.34" width="324.9" height="5.36" style="fill: rgb(250, 250, 250); transform-origin: 249.23px 356.02px;" id="elmqzlot6zhwt" class="animable"></rect><path d="M222.88,383h-3.74v-50.1a8.91,8.91,0,0,0-8.9-8.9H177.63a8.91,8.91,0,0,0-8.9,8.9V383H165v-50.1a12.64,12.64,0,0,1,12.63-12.63h32.61a12.65,12.65,0,0,1,12.64,12.63Z" style="fill: rgb(230, 230, 230); transform-origin: 193.94px 351.635px;" id="eloo9c72fc1gd" class="animable"></path><path d="M211.12,383h-3.74v-50.1a8.91,8.91,0,0,0-8.9-8.9H189.4a8.91,8.91,0,0,0-8.9,8.9V383h-3.74v-50.1a12.65,12.65,0,0,1,12.64-12.63h9.08a12.65,12.65,0,0,1,12.64,12.63Z" style="fill: rgb(224, 224, 224); transform-origin: 193.94px 351.635px;" id="elknirjqngzxp" class="animable"></path><rect x="163.76" y="311.8" width="60.37" height="10.29" rx="3.34" style="fill: rgb(224, 224, 224); transform-origin: 193.945px 316.945px;" id="elurs69ajaqnq" class="animable"></rect><path d="M370.6,383h-3.73v-50.1A8.91,8.91,0,0,0,358,324H325.36a8.91,8.91,0,0,0-8.9,8.9V383h-3.74v-50.1a12.65,12.65,0,0,1,12.64-12.63H358a12.64,12.64,0,0,1,12.63,12.63Z" style="fill: rgb(230, 230, 230); transform-origin: 341.675px 351.635px;" id="elpw68ddjxlac" class="animable"></path><path d="M358.84,383h-3.73v-50.1a8.91,8.91,0,0,0-8.9-8.9h-9.09a8.91,8.91,0,0,0-8.9,8.9V383h-3.73v-50.1a12.64,12.64,0,0,1,12.63-12.63h9.09a12.64,12.64,0,0,1,12.63,12.63Z" style="fill: rgb(224, 224, 224); transform-origin: 341.665px 351.635px;" id="elrvevuhafa2" class="animable"></path><rect x="311.48" y="311.8" width="60.37" height="10.29" rx="3.34" style="fill: rgb(224, 224, 224); transform-origin: 341.665px 316.945px;" id="eleptb9fvrsm" class="animable"></rect></g><g id="freepik--Shadow--inject-211" class="animable" style="transform-origin: 245.18px 412.39px;"><ellipse id="freepik--path--inject-211" cx="245.18" cy="412.39" rx="193.89" ry="11.32" style="fill: rgb(245, 245, 245); transform-origin: 245.18px 412.39px;" class="animable"></ellipse></g><g id="freepik--Narutomaki--inject-211" class="animable" style="transform-origin: 369.741px 187.224px;"><path d="M386.51,181.49a1.33,1.33,0,0,0-.84-.78l-1.76-.59a1.39,1.39,0,0,1-.4-.21l-.08-.38a1.22,1.22,0,0,0-.49-.77l-.23-1.16a1.39,1.39,0,0,0-1.49-1.06l-2.33.11a1.48,1.48,0,0,1-1.19-.46l-1.23-1.36a1.59,1.59,0,0,0-1.76-.35l-2.48,1a1.71,1.71,0,0,1-1.22,0l-2.13-.82a1.74,1.74,0,0,0-1.73.31l-2,1.71a1.87,1.87,0,0,1-1.13.42l-2.64,0a1.75,1.75,0,0,0-1.51.89l-1.07,2a1.68,1.68,0,0,1-.94.79l-2.51.89a1.58,1.58,0,0,0-1.1,1.41l0,1.83a1.47,1.47,0,0,1-.59,1.14l-1.84,1.44a1.39,1.39,0,0,0-.43,1.78l.59,1a1.23,1.23,0,0,0,.13.9l.2.34a1.54,1.54,0,0,1-.17.42l-.94,1.61a1.28,1.28,0,0,0-.12,1.15l.72,1.91a1.26,1.26,0,0,0,.54.65l1.3.78-.06.91a1.24,1.24,0,0,0,.16.72c.14.23.59,1.69.7,1.89a1.38,1.38,0,0,0,1.07.7l2.07.27a1.37,1.37,0,0,1,1.09.73l.74,1.48a1.48,1.48,0,0,0,1.68.7l2.47-.53a1.6,1.6,0,0,1,1.24.21l1.7,1.14a1.66,1.66,0,0,0,1.77,0l2.33-1.38a1.75,1.75,0,0,1,1.18-.22l2.46.41a1.75,1.75,0,0,0,1.64-.61l1.58-1.92a1.72,1.72,0,0,1,1-.61l2.66-.48a1.69,1.69,0,0,0,1.34-1.17l.54-2a1.54,1.54,0,0,1,.79-1l2.22-1.22a1.5,1.5,0,0,0,.81-1.63l-.41-1.61a1.37,1.37,0,0,1,.34-1.26l1.39-1.56a1.42,1.42,0,0,0,.33-1.31c-.06-.19-.65-1.52-.69-1.77a1.27,1.27,0,0,0-.35-.69l-.65-.64.47-1.44a1.32,1.32,0,0,0,0-.9C387.07,183.05,386.61,181.75,386.51,181.49Z" style="fill: rgb(227, 155, 73); transform-origin: 369.755px 190.429px;" id="el41mymegwnj3" class="animable"></path><g id="els1ddrm9fha"><path d="M386.51,181.49a1.33,1.33,0,0,0-.84-.78l-1.76-.59a1.39,1.39,0,0,1-.4-.21l-.08-.38a1.22,1.22,0,0,0-.49-.77l-.23-1.16a1.39,1.39,0,0,0-1.49-1.06l-2.33.11a1.48,1.48,0,0,1-1.19-.46l-1.23-1.36a1.59,1.59,0,0,0-1.76-.35l-2.48,1a1.71,1.71,0,0,1-1.22,0l-2.13-.82a1.74,1.74,0,0,0-1.73.31l-2,1.71a1.87,1.87,0,0,1-1.13.42l-2.64,0a1.75,1.75,0,0,0-1.51.89l-1.07,2a1.68,1.68,0,0,1-.94.79l-2.51.89a1.58,1.58,0,0,0-1.1,1.41l0,1.83a1.47,1.47,0,0,1-.59,1.14l-1.84,1.44a1.39,1.39,0,0,0-.43,1.78l.59,1a1.23,1.23,0,0,0,.13.9l.2.34a1.54,1.54,0,0,1-.17.42l-.94,1.61a1.28,1.28,0,0,0-.12,1.15l.72,1.91a1.26,1.26,0,0,0,.54.65l1.3.78-.06.91a1.24,1.24,0,0,0,.16.72c.14.23.59,1.69.7,1.89a1.38,1.38,0,0,0,1.07.7l2.07.27a1.37,1.37,0,0,1,1.09.73l.74,1.48a1.48,1.48,0,0,0,1.68.7l2.47-.53a1.6,1.6,0,0,1,1.24.21l1.7,1.14a1.66,1.66,0,0,0,1.77,0l2.33-1.38a1.75,1.75,0,0,1,1.18-.22l2.46.41a1.75,1.75,0,0,0,1.64-.61l1.58-1.92a1.72,1.72,0,0,1,1-.61l2.66-.48a1.69,1.69,0,0,0,1.34-1.17l.54-2a1.54,1.54,0,0,1,.79-1l2.22-1.22a1.5,1.5,0,0,0,.81-1.63l-.41-1.61a1.37,1.37,0,0,1,.34-1.26l1.39-1.56a1.42,1.42,0,0,0,.33-1.31c-.06-.19-.65-1.52-.69-1.77a1.27,1.27,0,0,0-.35-.69l-.65-.64.47-1.44a1.32,1.32,0,0,0,0-.9C387.07,183.05,386.61,181.75,386.51,181.49Z" style="fill: rgb(255, 255, 255); opacity: 0.3; transform-origin: 369.755px 190.429px;" class="animable"></path></g><g id="el9sf9ved0v4s"><path d="M365.14,176.68l2-1.71a1.74,1.74,0,0,1,1.73-.31l2.13.82a1.71,1.71,0,0,0,1.22,0l2.48-1a1.59,1.59,0,0,1,1.76.35l1.23,1.36a1.48,1.48,0,0,0,1.19.46l2.33-.11a1.39,1.39,0,0,1,1.49,1.06l.3,1.54a1.31,1.31,0,0,0,.9,1l1.76.59a1.28,1.28,0,0,1,.85,1.63l-.52,1.6a1.27,1.27,0,0,0,.3,1.3l1.12,1.11a1.32,1.32,0,0,1,0,1.84L386,189.75a1.38,1.38,0,0,0-.34,1.26l.41,1.61a1.49,1.49,0,0,1-.81,1.63l-2.22,1.22a1.57,1.57,0,0,0-.79,1l-.54,2a1.69,1.69,0,0,1-1.34,1.16l-2.66.48a1.77,1.77,0,0,0-1,.61l-1.58,1.92a1.78,1.78,0,0,1-1.64.62l-2.46-.42a1.7,1.7,0,0,0-1.18.23l-2.33,1.37a1.66,1.66,0,0,1-1.77,0l-1.7-1.14a1.6,1.6,0,0,0-1.24-.21l-2.47.54a1.5,1.5,0,0,1-1.68-.71l-.74-1.48a1.37,1.37,0,0,0-1.09-.73l-2.07-.27a1.31,1.31,0,0,1-1.21-1.38l.11-1.57a1.28,1.28,0,0,0-.62-1.18l-1.45-.87a1.27,1.27,0,0,1-.42-1.78l.94-1.61a1.3,1.3,0,0,0,0-1.32l-.79-1.36a1.39,1.39,0,0,1,.43-1.78l1.84-1.44a1.47,1.47,0,0,0,.59-1.14l0-1.83a1.58,1.58,0,0,1,1.1-1.41l2.51-.89a1.68,1.68,0,0,0,.94-.79l1.07-2a1.75,1.75,0,0,1,1.51-.89l2.64,0A1.87,1.87,0,0,0,365.14,176.68Z" style="fill: rgb(255, 255, 255); opacity: 0.5; transform-origin: 369.376px 189.524px;" class="animable"></path></g><path d="M374,196.55c-4.83,1.8-10,.46-11.79-3.22-1.59-3.23.51-7.43,4.68-9.37a9.86,9.86,0,0,1,6.15-.79,6,6,0,0,1,4.3,3.12c1.06,2.13-.32,4.9-3.06,6.18s-5.82.57-6.87-1.56a2.78,2.78,0,0,1,.09-2.52,4.47,4.47,0,0,1,2.11-1.95,4.05,4.05,0,0,1,4.41.41.69.69,0,0,1-.28,1.12h0a.84.84,0,0,1-.89-.12,2.47,2.47,0,0,0-2.64-.18,2.81,2.81,0,0,0-1.32,1.22,1.49,1.49,0,0,0-.06,1.36c.71,1.45,2.89,1.89,4.85,1s3-2.83,2.25-4.28a4.7,4.7,0,0,0-3.37-2.41,8.06,8.06,0,0,0-5.06.65c-3.39,1.58-5.13,4.93-3.87,7.48,1.6,3.24,6.4,4.25,10.71,2.25a9.93,9.93,0,0,0,4.69-4.33,5.7,5.7,0,0,0,.21-5.18c-2.12-4.31-8.5-5.66-14.2-3-5.45,2.54-8.35,7.82-6.75,12a.73.73,0,0,1-.42.9h0a.76.76,0,0,1-1-.34c-1.86-4.89,1.4-11,7.6-13.84,6.49-3,13.77-1.41,16.23,3.58a6.93,6.93,0,0,1-.24,6.33,11.51,11.51,0,0,1-5.48,5.07C374.66,196.3,374.35,196.43,374,196.55Z" style="fill: rgb(227, 155, 73); transform-origin: 368.85px 188.489px;" id="elegxvup8w9fk" class="animable"></path><path d="M388.39,180.75a1.22,1.22,0,0,0-.44-1l-1.35-1.15a1.23,1.23,0,0,1-.28-.33l.09-.4a1.26,1.26,0,0,0-.14-.9l.26-1.19a1.28,1.28,0,0,0-.92-1.51l-2.15-.66a1.34,1.34,0,0,1-.89-.84L382,171a1.42,1.42,0,0,0-1.45-.91l-2.63.12a1.52,1.52,0,0,1-1.11-.38l-1.59-1.5a1.64,1.64,0,0,0-1.69-.26l-2.5,1a1.71,1.71,0,0,1-1.18,0l-2.39-.84a1.76,1.76,0,0,0-1.72.37L364,170.23a1.85,1.85,0,0,1-1.17.45l-2.62,0a1.75,1.75,0,0,0-1.56,1l-.76,1.76a1.71,1.71,0,0,1-1,.89l-2.23.79a1.55,1.55,0,0,0-1.1,1.56l.12,1.18a1.4,1.4,0,0,0-.25.92l.05.39a1.52,1.52,0,0,1-.32.35l-1.49,1.23a1.51,1.51,0,0,0-.57,1.08c0,.27-.1,1.7-.12,2.07a1.24,1.24,0,0,0,.23.81l.86,1.18-.42.85a1.28,1.28,0,0,0-.14.75c0,.26-.15,1.82-.13,2.05a1.25,1.25,0,0,0,.68,1l1.77.95a1.25,1.25,0,0,1,.68,1.06l.08,1.67a1.33,1.33,0,0,0,1.23,1.23l2.45.3a1.41,1.41,0,0,1,1,.61l1.07,1.66a1.51,1.51,0,0,0,1.6.58l2.64-.56a1.68,1.68,0,0,1,1.17.17l2,1.22a1.75,1.75,0,0,0,1.73-.05l2.19-1.34a1.79,1.79,0,0,1,1.19-.24l2.58.41a1.78,1.78,0,0,0,1.68-.68l1.27-1.72a1.78,1.78,0,0,1,1.11-.68l2.49-.44a1.65,1.65,0,0,0,1.37-1.3l.28-1.68a1.59,1.59,0,0,1,.81-1.11l1.88-1a1.58,1.58,0,0,0,.82-1.15c0-.21,0-1.68.09-1.94a1.2,1.2,0,0,0,0-.77l-.33-.84,1-1.23a1.4,1.4,0,0,0,.33-.88C388.28,182.44,388.38,181,388.39,180.75Z" style="fill: rgb(227, 155, 73); transform-origin: 369.684px 183.789px;" id="elvwx45rddxn" class="animable"></path><g id="elwuwbrelzma"><path d="M388.39,180.75a1.22,1.22,0,0,0-.44-1l-1.35-1.15a1.23,1.23,0,0,1-.28-.33l.09-.4a1.26,1.26,0,0,0-.14-.9l.26-1.19a1.28,1.28,0,0,0-.92-1.51l-2.15-.66a1.34,1.34,0,0,1-.89-.84L382,171a1.42,1.42,0,0,0-1.45-.91l-2.63.12a1.52,1.52,0,0,1-1.11-.38l-1.59-1.5a1.64,1.64,0,0,0-1.69-.26l-2.5,1a1.71,1.71,0,0,1-1.18,0l-2.39-.84a1.76,1.76,0,0,0-1.72.37L364,170.23a1.85,1.85,0,0,1-1.17.45l-2.62,0a1.75,1.75,0,0,0-1.56,1l-.76,1.76a1.71,1.71,0,0,1-1,.89l-2.23.79a1.55,1.55,0,0,0-1.1,1.56l.12,1.18a1.4,1.4,0,0,0-.25.92l.05.39a1.52,1.52,0,0,1-.32.35l-1.49,1.23a1.51,1.51,0,0,0-.57,1.08c0,.27-.1,1.7-.12,2.07a1.24,1.24,0,0,0,.23.81l.86,1.18-.42.85a1.28,1.28,0,0,0-.14.75c0,.26-.15,1.82-.13,2.05a1.25,1.25,0,0,0,.68,1l1.77.95a1.25,1.25,0,0,1,.68,1.06l.08,1.67a1.33,1.33,0,0,0,1.23,1.23l2.45.3a1.41,1.41,0,0,1,1,.61l1.07,1.66a1.51,1.51,0,0,0,1.6.58l2.64-.56a1.68,1.68,0,0,1,1.17.17l2,1.22a1.75,1.75,0,0,0,1.73-.05l2.19-1.34a1.79,1.79,0,0,1,1.19-.24l2.58.41a1.78,1.78,0,0,0,1.68-.68l1.27-1.72a1.78,1.78,0,0,1,1.11-.68l2.49-.44a1.65,1.65,0,0,0,1.37-1.3l.28-1.68a1.59,1.59,0,0,1,.81-1.11l1.88-1a1.58,1.58,0,0,0,.82-1.15c0-.21,0-1.68.09-1.94a1.2,1.2,0,0,0,0-.77l-.33-.84,1-1.23a1.4,1.4,0,0,0,.33-.88C388.28,182.44,388.38,181,388.39,180.75Z" style="fill: rgb(255, 255, 255); opacity: 0.3; transform-origin: 369.684px 183.789px;" class="animable"></path></g><g id="el2tycnjip1jl"><path d="M371.05,169.08l2.5-1a1.64,1.64,0,0,1,1.69.26l1.59,1.5a1.52,1.52,0,0,0,1.11.38l2.63-.12A1.42,1.42,0,0,1,382,171l.55,1.72a1.33,1.33,0,0,0,.9.84l2.14.66a1.28,1.28,0,0,1,.92,1.51l-.35,1.58a1.26,1.26,0,0,0,.42,1.24l1.35,1.15a1.29,1.29,0,0,1,.11,1.85L387,183a1.37,1.37,0,0,0-.24,1.35l.56,1.44a1.45,1.45,0,0,1-.75,1.76l-1.88,1.05a1.57,1.57,0,0,0-.81,1.1l-.28,1.69a1.64,1.64,0,0,1-1.37,1.3l-2.49.44a1.76,1.76,0,0,0-1.11.67l-1.27,1.73a1.77,1.77,0,0,1-1.67.68l-2.59-.41a1.74,1.74,0,0,0-1.19.24l-2.19,1.33a1.69,1.69,0,0,1-1.72.05l-2.05-1.21a1.59,1.59,0,0,0-1.16-.17l-2.65.56a1.49,1.49,0,0,1-1.59-.59l-1.08-1.66a1.45,1.45,0,0,0-1-.61l-2.45-.3a1.32,1.32,0,0,1-1.23-1.22l-.07-1.68a1.28,1.28,0,0,0-.69-1.06l-1.76-.94a1.26,1.26,0,0,1-.54-1.73l.73-1.48a1.29,1.29,0,0,0-.09-1.34l-1-1.31a1.35,1.35,0,0,1,.33-1.86l1.49-1.23a1.45,1.45,0,0,0,.56-1.26l-.16-1.58a1.55,1.55,0,0,1,1.1-1.56l2.23-.79a1.71,1.71,0,0,0,1-.89l.76-1.76a1.75,1.75,0,0,1,1.56-1l2.62,0a1.85,1.85,0,0,0,1.17-.45l1.77-1.59a1.76,1.76,0,0,1,1.72-.37l2.39.84A1.71,1.71,0,0,0,371.05,169.08Z" style="fill: rgb(255, 255, 255); opacity: 0.6; transform-origin: 369.757px 182.792px;" class="animable"></path></g><path d="M371.12,191.14c-5.08.15-9.18-2.84-9.34-7-.14-3.63,3.43-7,8-7.48a8.85,8.85,0,0,1,5.86,1.27,5.52,5.52,0,0,1,2.63,4.42c.09,2.4-2.26,4.61-5.23,4.94s-5.48-1.37-5.58-3.77a3.14,3.14,0,0,1,1.09-2.39A4.74,4.74,0,0,1,371.2,180a3.61,3.61,0,0,1,3.82,1.85.77.77,0,0,1-.7,1h0a.75.75,0,0,1-.76-.41,2.18,2.18,0,0,0-2.3-1,2.88,2.88,0,0,0-1.68.74,1.65,1.65,0,0,0-.6,1.29c.06,1.63,1.84,2.77,4,2.54s3.81-1.75,3.75-3.38a4.33,4.33,0,0,0-2.07-3.44,7.33,7.33,0,0,0-4.83-1c-3.68.4-6.59,3.06-6.48,5.92.14,3.65,4.07,6.2,8.75,5.7a10.51,10.51,0,0,0,6-2.63,6.42,6.42,0,0,0,2.26-4.92c-.19-4.85-5.39-8.25-11.6-7.57-5.93.64-10.66,4.78-10.9,9.38a.81.81,0,0,1-.74.72h0a.67.67,0,0,1-.8-.66c.27-5.32,5.65-10.1,12.39-10.83,7.06-.77,13,3.18,13.19,8.8a7.81,7.81,0,0,1-2.75,6,12.19,12.19,0,0,1-7,3.09C371.79,191.11,371.45,191.14,371.12,191.14Z" style="fill: rgb(227, 155, 73); transform-origin: 369.11px 182.197px;" id="elmqgqn8lxtc" class="animable"></path></g><g id="freepik--Leek--inject-211" class="animable" style="transform-origin: 344.951px 146.993px;"><path d="M319.44,167.71l26.76-24,17.49-23.83s3.34-.71,4.93,3.58c0,0-15.53,21.89-20.82,26.87l21.35-8.85s2.48,3.34.62,6.42l-29,11.09-17.7,15.14S319.55,172.86,319.44,167.71Z" style="fill: rgb(227, 155, 73); transform-origin: 344.951px 146.983px;" id="elh8gcp3pfjc6" class="animable"></path><g id="el1ebxc2mmnyn"><path d="M319.44,167.71l26.76-24,17.49-23.83s3.34-.71,4.93,3.58c0,0-15.53,21.89-20.82,26.87l21.35-8.85s2.48,3.34.62,6.42l-29,11.09-17.7,15.14S319.55,172.86,319.44,167.71Z" style="fill: rgb(255, 255, 255); opacity: 0.2; transform-origin: 344.951px 146.983px;" class="animable"></path></g><g id="elaqi0t3irrv9"><path d="M335,153.75l-15.55,14c.11,5.15,3.64,6.4,3.64,6.4L339.57,160Z" style="fill: rgb(255, 255, 255); opacity: 0.6; transform-origin: 329.51px 163.95px;" class="animable"></path></g><path d="M369.15,141.46l-21.35,8.85s-8.65-.29-12.72,3.36h0l-2.15,1.93c1.2-.1,2.37,0,2.85.71,1.14,1.65-1.5,4.24-.89,5.33.47.84,2.14-.86,3.85-.93l2-1.74,29-11.09C371.63,144.8,369.15,141.46,369.15,141.46Z" style="fill: rgb(227, 155, 73); transform-origin: 351.69px 151.666px;" id="elbgmnd896oxc" class="animable"></path><g id="elc2l2i2ffx7n"><path d="M323.08,174.11c1.58-6.64-3.64-6.4-3.64-6.4C319.55,172.86,323.08,174.11,323.08,174.11Z" style="fill: rgb(255, 255, 255); opacity: 0.5; transform-origin: 321.409px 170.909px;" class="animable"></path></g></g><g id="freepik--Chashu--inject-211" class="animable" style="transform-origin: 276.651px 158.71px;"><path d="M270.86,132.49s21.88,4.43,20.92,15.95c-1.27,15.15,23.23,20.35-9.87,36.47Z" style="fill: rgb(38, 50, 56); transform-origin: 285.091px 158.7px;" id="ely0q6lzep03b" class="animable"></path><g id="el9vua4bkc87q"><path d="M270.86,132.49s21.88,4.43,20.92,15.95c-1.27,15.15,23.23,20.35-9.87,36.47Z" style="fill: rgb(255, 255, 255); opacity: 0.7; transform-origin: 285.091px 158.7px;" class="animable"></path></g><g id="eld6nz7rwksx6"><path d="M271.78,136.85l9.38,44.53c26.16-13.41,5.66-18.08,6.75-31.08C288.57,142.35,276.82,138.24,271.78,136.85Z" style="fill: rgb(255, 255, 255); opacity: 0.3; transform-origin: 283.153px 159.115px;" class="animable"></path></g><g id="el2dax3kgp07z"><path d="M272.7,141.25l7.24,34.31c20-10.32,4.25-13.93,5.09-24C285.54,145.53,276.68,142.36,272.7,141.25Z" style="fill: rgb(255, 255, 255); opacity: 0.3; transform-origin: 281.416px 158.405px;" class="animable"></path></g><g id="elmukqdayipt8"><path d="M279.12,171.71c2.75-1.1,6.46-3.25,6.5-6.94.06-4.58-6.24-9.42-10.53-12.19Z" style="fill: rgb(255, 255, 255); opacity: 0.3; transform-origin: 280.355px 162.145px;" class="animable"></path></g><path d="M270.64,133.42a46.46,46.46,0,0,1,11.19,3.85c2.78,1.39,5.63,3.16,7.45,5.75s1.31,4.95,1.56,7.81c.33,3.75,2.13,7,4.05,10.2,1.7,2.8,4.09,6.05,3.34,9.52-.55,2.56-2.6,4.58-4.55,6.19a62.11,62.11,0,0,1-12.28,7.37c-1.09.54-.07,2.14,1,1.6,5.84-2.88,13.85-6.48,16.93-12.7,1.7-3.45.65-6.89-1.11-10.07-2.09-3.78-4.9-7.3-5.46-11.72-.34-2.69.22-5.12-1-7.68a15.91,15.91,0,0,0-5.89-6.13,43.29,43.29,0,0,0-14.81-5.84,1,1,0,0,0-.43,1.85Z" style="fill: rgb(227, 155, 73); transform-origin: 285.171px 158.695px;" id="eljj89z3r6pr" class="animable"></path><path d="M270.64,133.42a46.46,46.46,0,0,1,11.19,3.85c2.78,1.39,5.63,3.16,7.45,5.75s1.31,4.95,1.56,7.81c.33,3.75,2.13,7,4.05,10.2,1.7,2.8,4.09,6.05,3.34,9.52-.55,2.56-2.6,4.58-4.55,6.19a62.11,62.11,0,0,1-12.28,7.37c-1.09.54-.07,2.14,1,1.6,5.84-2.88,13.85-6.48,16.93-12.7,1.7-3.45.65-6.89-1.11-10.07-2.09-3.78-4.9-7.3-5.46-11.72-.34-2.69.22-5.12-1-7.68a15.91,15.91,0,0,0-5.89-6.13,43.29,43.29,0,0,0-14.81-5.84,1,1,0,0,0-.43,1.85Z" style="fill: rgb(227, 155, 73); transform-origin: 285.171px 158.695px;" id="elj7ywlhfwlmg" class="animable"></path><g id="el6krp4kzxy6y"><g style="opacity: 0.5; transform-origin: 285.171px 158.695px;" class="animable"><path d="M270.64,133.42a46.46,46.46,0,0,1,11.19,3.85c2.78,1.39,5.63,3.16,7.45,5.75s1.31,4.95,1.56,7.81c.33,3.75,2.13,7,4.05,10.2,1.7,2.8,4.09,6.05,3.34,9.52-.55,2.56-2.6,4.58-4.55,6.19a62.11,62.11,0,0,1-12.28,7.37c-1.09.54-.07,2.14,1,1.6,5.84-2.88,13.85-6.48,16.93-12.7,1.7-3.45.65-6.89-1.11-10.07-2.09-3.78-4.9-7.3-5.46-11.72-.34-2.69.22-5.12-1-7.68a15.91,15.91,0,0,0-5.89-6.13,43.29,43.29,0,0,0-14.81-5.84,1,1,0,0,0-.43,1.85Z" style="fill: rgb(255, 255, 255); transform-origin: 285.171px 158.695px;" id="elrjr2cn21q0r" class="animable"></path></g></g><g id="el50esvg03mdf"><path d="M299.35,173c1.7-3.45.65-6.89-1.11-10.07-2.09-3.78-4.9-7.3-5.46-11.72-.34-2.69.22-5.12-1-7.68a15.91,15.91,0,0,0-5.89-6.13,43.29,43.29,0,0,0-14.81-5.84,1,1,0,0,0-.43,1.85l.43.09,5.51,26.12,2.54,12.08h0L281.71,184l-.31.15c-1.09.54-.07,2.14,1,1.6C288.26,182.83,296.27,179.23,299.35,173Z" style="opacity: 0.1; transform-origin: 285.191px 158.71px;" class="animable"></path></g><path d="M253.77,136.83s22.1-3.17,25.06,8c3.89,14.7,28.71,11.38,2.94,37.67Z" style="fill: rgb(38, 50, 56); transform-origin: 273.548px 159.457px;" id="el9fykuvgz05i" class="animable"></path><g id="elq5iazzhndah"><path d="M253.77,136.83s22.1-3.17,25.06,8c3.89,14.7,28.71,11.38,2.94,37.67Z" style="fill: rgb(255, 255, 255); opacity: 0.7; transform-origin: 273.548px 159.457px;" class="animable"></path></g><g id="eliosrqxsjnvo"><path d="M256.1,140.63l23.78,38.79c20.14-21.41-.73-18.92-4.07-31.53C273.76,140.17,261.31,140.25,256.1,140.63Z" style="fill: rgb(255, 255, 255); opacity: 0.3; transform-origin: 272.317px 159.959px;" class="animable"></path></g><g id="elfcnnaos4ml"><path d="M258.45,144.46l18.32,29.89c15.41-16.44-.66-14.55-3.24-24.27C272,144.18,262.56,144.17,258.45,144.46Z" style="fill: rgb(255, 255, 255); opacity: 0.3; transform-origin: 270.909px 159.358px;" class="animable"></path></g><g id="elowj4jyuiws"><path d="M274.71,171c2.22-1.95,5-5.23,3.8-8.72-1.49-4.33-9-6.78-14-7.95Z" style="fill: rgb(255, 255, 255); opacity: 0.3; transform-origin: 271.655px 162.665px;" class="animable"></path></g><path d="M253.88,137.77a46.38,46.38,0,0,1,11.83-.12c3.09.38,6.36,1.09,8.94,2.91s2.9,4.23,4.09,6.84c1.57,3.42,4.38,5.91,7.24,8.25,2.55,2.06,5.88,4.32,6.34,7.85.34,2.59-.91,5.19-2.2,7.35a62.29,62.29,0,0,1-9.1,11.07c-.85.87.65,2,1.5,1.16,4.53-4.66,10.87-10.75,11.68-17.64.45-3.82-1.7-6.71-4.42-9.12-3.24-2.85-7.06-5.23-9.08-9.2-1.23-2.42-1.5-4.9-3.53-6.9a15.84,15.84,0,0,0-7.6-3.8,43.2,43.2,0,0,0-15.91-.53,1,1,0,0,0,.22,1.88Z" style="fill: rgb(227, 155, 73); transform-origin: 273.675px 159.384px;" id="elalb030a87lm" class="animable"></path><path d="M253.88,137.77a46.38,46.38,0,0,1,11.83-.12c3.09.38,6.36,1.09,8.94,2.91s2.9,4.23,4.09,6.84c1.57,3.42,4.38,5.91,7.24,8.25,2.55,2.06,5.88,4.32,6.34,7.85.34,2.59-.91,5.19-2.2,7.35a62.29,62.29,0,0,1-9.1,11.07c-.85.87.65,2,1.5,1.16,4.53-4.66,10.87-10.75,11.68-17.64.45-3.82-1.7-6.71-4.42-9.12-3.24-2.85-7.06-5.23-9.08-9.2-1.23-2.42-1.5-4.9-3.53-6.9a15.84,15.84,0,0,0-7.6-3.8,43.2,43.2,0,0,0-15.91-.53,1,1,0,0,0,.22,1.88Z" style="fill: rgb(227, 155, 73); transform-origin: 273.675px 159.384px;" id="els2jjl5hdsxp" class="animable"></path><g id="el8tnpo4ilt94"><g style="opacity: 0.5; transform-origin: 273.675px 159.384px;" class="animable"><path d="M253.88,137.77a46.38,46.38,0,0,1,11.83-.12c3.09.38,6.36,1.09,8.94,2.91s2.9,4.23,4.09,6.84c1.57,3.42,4.38,5.91,7.24,8.25,2.55,2.06,5.88,4.32,6.34,7.85.34,2.59-.91,5.19-2.2,7.35a62.29,62.29,0,0,1-9.1,11.07c-.85.87.65,2,1.5,1.16,4.53-4.66,10.87-10.75,11.68-17.64.45-3.82-1.7-6.71-4.42-9.12-3.24-2.85-7.06-5.23-9.08-9.2-1.23-2.42-1.5-4.9-3.53-6.9a15.84,15.84,0,0,0-7.6-3.8,43.2,43.2,0,0,0-15.91-.53,1,1,0,0,0,.22,1.88Z" style="fill: rgb(255, 255, 255); transform-origin: 273.675px 159.384px;" id="el1o46god5d63" class="animable"></path></g></g></g><g id="freepik--Egg--inject-211" class="animable" style="transform-origin: 229.417px 173.277px;"><path d="M243.45,180.19c-4.5,4.93-13,9.31-21.94,1.19-9.9-9-11.92-23-7.42-28s19.85,1.73,26.13,7.47S248,175.25,243.45,180.19Z" style="fill: rgb(227, 155, 73); transform-origin: 228.951px 168.76px;" id="el9rbqtx32z2l" class="animable"></path><g id="elahrqln2w0tw"><path d="M243.45,180.19c-4.5,4.93-13,9.31-21.94,1.19-9.9-9-11.92-23-7.42-28s19.85,1.73,26.13,7.47S248,175.25,243.45,180.19Z" style="fill: rgb(255, 255, 255); opacity: 0.4; transform-origin: 228.951px 168.76px;" class="animable"></path></g><g id="el7hom90jg4jh"><path d="M243.45,180.19c-4.5,4.93-13.25,4.28-19.53-1.45s-14.33-20.41-9.83-25.34,19.85,1.73,26.13,7.47S248,175.25,243.45,180.19Z" style="fill: rgb(255, 255, 255); opacity: 0.6; transform-origin: 229.435px 167.59px;" class="animable"></path></g><path d="M240.09,175.59c-2.24,2.46-7.16,1.62-11-1.87S224,165.41,226.24,163s7.16-1.63,11,1.86S242.34,173.13,240.09,175.59Z" style="fill: rgb(227, 155, 73); transform-origin: 233.167px 169.304px;" id="el0m48mk5p9l6k" class="animable"></path><path d="M248.59,183c-1.7,6.46-7.22,14.3-18.88,11.24-13-3.4-21.26-14.87-19.56-21.33s18.38-7.68,26.61-5.52S250.28,176.53,248.59,183Z" style="fill: rgb(227, 155, 73); transform-origin: 229.417px 180.666px;" id="elsgxj61j3am" class="animable"></path><g id="elabvpw7t020u"><path d="M248.59,183c-1.7,6.46-7.22,14.3-18.88,11.24-13-3.4-21.26-14.87-19.56-21.33s18.38-7.68,26.61-5.52S250.28,176.53,248.59,183Z" style="fill: rgb(255, 255, 255); opacity: 0.4; transform-origin: 229.417px 180.666px;" class="animable"></path></g><g id="elyee6hlpo9li"><path d="M248.59,183c-1.7,6.46-9.75,9.94-18,7.78s-22.16-11.41-20.46-17.87,18.38-7.68,26.61-5.52S250.28,176.53,248.59,183Z" style="fill: rgb(255, 255, 255); opacity: 0.7; transform-origin: 229.446px 178.915px;" class="animable"></path></g><path d="M243.48,180.47c-.85,3.22-5.6,4.77-10.61,3.46s-8.38-5-7.54-8.22,5.6-4.77,10.61-3.45S244.32,177.25,243.48,180.47Z" style="fill: rgb(227, 155, 73); transform-origin: 234.405px 178.092px;" id="elzhpe3xqhor" class="animable"></path></g><g id="freepik--Ramen--inject-211" class="animable" style="transform-origin: 290.21px 261.861px;"><path d="M302,245.88s4.47,1,15.52,7.85c9.56,6,15.13,5.86,15.13,5.86s16.88-24,30.35-36.65c0,0-9.79-.32-19.63-9-9.44-8.32-17.27-7.42-17.27-7.42Z" style="fill: rgb(38, 50, 56); transform-origin: 332.5px 233.041px;" id="elnhaapq2qg1" class="animable"></path><g id="eldt1a6bb5xb5"><path d="M302,245.88s4.47,1,15.52,7.85c9.56,6,15.13,5.86,15.13,5.86s16.88-24,30.35-36.65c0,0-9.79-.32-19.63-9-9.44-8.32-17.27-7.42-17.27-7.42Z" style="fill: rgb(255, 255, 255); opacity: 0.1; transform-origin: 332.5px 233.041px;" class="animable"></path></g><g id="elopfczfgd9q8"><path d="M355.72,230.42h0c-6.16,3-16.21,18-20.39,22.34s-6.23,1.24-8.74-.11,12.08-19.92,10.47-20.51S321.6,253,318.61,249s-8.43-4.54-11-6.09,13-27.53,13-27.53h0L302,245.88s4.47,1,15.53,7.85c9.55,6,15.12,5.86,15.12,5.86A365.49,365.49,0,0,1,355.72,230.42Z" style="opacity: 0.7; transform-origin: 328.86px 237.485px;" class="animable"></path></g><polygon points="318.74 241.63 316.83 244.03 320.47 246.29 318.74 241.63" id="el5pmdqpniq7x" class="animable" style="transform-origin: 318.65px 243.96px;"></polygon><polygon points="329.89 248.96 331.99 251.21 334.76 247.95 329.89 248.96" id="elgwna2ppebog" class="animable" style="transform-origin: 332.325px 249.58px;"></polygon><polygon points="320.83 242.22 321.85 238.06 324.07 239.82 320.83 242.22" id="elo8cty1rbrvo" class="animable" style="transform-origin: 322.45px 240.14px;"></polygon><polygon points="323.21 232.54 319.99 235.1 322.73 235.95 323.21 232.54" id="el15alj73pnf1" class="animable" style="transform-origin: 321.6px 234.245px;"></polygon><polygon points="333.49 243.07 331.08 244.99 333.13 245.63 333.49 243.07" id="el7hejqq45m1" class="animable" style="transform-origin: 332.285px 244.35px;"></polygon><polygon points="339.48 241.11 337.07 243.03 339.12 243.66 339.48 241.11" id="elvruau8guya" class="animable" style="transform-origin: 338.275px 242.385px;"></polygon><polygon points="329.14 213.65 331.3 212.68 329.6 209.84 329.14 213.65" id="eltj632i9urlh" class="animable" style="transform-origin: 330.22px 211.745px;"></polygon><polygon points="347.55 224.85 349.7 223.87 348.01 221.04 347.55 224.85" id="eligssht44h4" class="animable" style="transform-origin: 348.625px 222.945px;"></polygon><polygon points="327.92 212.51 325.75 215 324.84 213.01 327.92 212.51" id="eloojg04euw8" class="animable" style="transform-origin: 326.38px 213.755px;"></polygon><polygon points="356.5 223.79 354.33 226.28 353.43 224.29 356.5 223.79" id="el5bhnwx1uvwx" class="animable" style="transform-origin: 354.965px 225.035px;"></polygon><polygon points="351.76 228.05 349.6 230.54 348.69 228.55 351.76 228.05" id="elu1jnefz6oh" class="animable" style="transform-origin: 350.225px 229.295px;"></polygon><polygon points="322.86 218.31 325.98 217.69 324.4 216.14 322.86 218.31" id="elxqaczev65e" class="animable" style="transform-origin: 324.42px 217.225px;"></polygon><path d="M341.36,251.46c0-21.05-27.89-15.19-42.15-23.24-18.32-10.36-34.08,2.19-34.08,23.24Z" style="fill: rgb(227, 155, 73); transform-origin: 303.245px 237.99px;" id="eln09k0p2qqu" class="animable"></path><g id="el0959moik9gd6"><path d="M268.34,251.46h69.73c-2.1-17.06-25.68-12.3-38.67-19.64C282.66,222.36,269.44,232.93,268.34,251.46Z" style="fill: rgb(255, 255, 255); opacity: 0.3; transform-origin: 303.205px 239.875px;" class="animable"></path></g><g id="el44cs0532m4l"><path d="M273,251.46h60.2c-2.92-13.14-22.43-9.48-33.34-15.65C285.8,227.84,274.57,236.25,273,251.46Z" style="fill: rgb(255, 255, 255); opacity: 0.3; transform-origin: 303.1px 242.103px;" class="animable"></path></g><g id="elgay0fvg1x2"><path d="M277.94,251.46h50.44c-4.15-8.56-19.11-6.24-27.76-11.13C289.27,233.92,280.09,239.89,277.94,251.46Z" style="fill: rgb(255, 255, 255); opacity: 0.3; transform-origin: 303.16px 244.584px;" class="animable"></path></g><g id="el0bf0rv7m4gq"><path d="M281.62,251.46h40.91c-5.56-3.57-15.4-2.91-21.61-6.42C292,240,284.59,243.52,281.62,251.46Z" style="fill: rgb(255, 255, 255); opacity: 0.3; transform-origin: 302.075px 247.078px;" class="animable"></path></g><g id="elv9975leuz1"><path d="M285.92,251.46h18.8a18.38,18.38,0,0,1-2.66-1.2C295.46,246.52,289.68,247.49,285.92,251.46Z" style="fill: rgb(255, 255, 255); opacity: 0.3; transform-origin: 295.32px 249.686px;" class="animable"></path></g><path d="M240.21,251.15h68.94s-.33-16.17-13-19.38-11-12.55-25.31-12.42C249.2,219.54,240.21,251.15,240.21,251.15Z" style="fill: rgb(227, 155, 73); transform-origin: 274.68px 235.249px;" id="elbkofs62lqp4" class="animable"></path><g id="elb5geyzynalh"><path d="M240.21,251.15h68.94s-.33-16.17-13-19.38-11-12.55-25.31-12.42C249.2,219.54,240.21,251.15,240.21,251.15Z" style="fill: rgb(255, 255, 255); opacity: 0.3; transform-origin: 274.68px 235.249px;" class="animable"></path></g><g id="el4kvk1wjmknp"><path d="M244.69,251.15H306c-.79-4.63-3.33-12.84-11.47-15-11.52-3-10-11.79-23-11.67C255.85,224.65,247.47,243.46,244.69,251.15Z" style="fill: rgb(255, 255, 255); opacity: 0.3; transform-origin: 275.345px 237.814px;" class="animable"></path></g><g id="elqx0wm4l3jqe"><path d="M250.76,251.15h49c-.6-3.67-2.6-10.36-9.18-12.08-9.19-2.41-8-9.41-18.39-9.31C259.63,229.87,252.93,245.1,250.76,251.15Z" style="fill: rgb(255, 255, 255); opacity: 0.3; transform-origin: 275.26px 240.454px;" class="animable"></path></g><g id="eld7u6apx8gof"><path d="M256.15,251.15h38.4c-.74-3-2.56-7-7-8.21-7.36-1.93-6.39-7.54-14.73-7.46C263.6,235.57,258.33,245.68,256.15,251.15Z" style="fill: rgb(255, 255, 255); opacity: 0.3; transform-origin: 275.35px 243.315px;" class="animable"></path></g><g id="el9dwbu8zawym"><path d="M262.22,251.15h26.09c-.55-2-1.82-4.56-4.74-5.32-5-1.32-4.38-5.16-10.08-5.1C267.36,240.78,263.78,247.35,262.22,251.15Z" style="fill: rgb(255, 255, 255); opacity: 0.3; transform-origin: 275.265px 245.94px;" class="animable"></path></g><g id="elcuf4savdg3v"><path d="M281.75,251.15a3.44,3.44,0,0,0-2.33-2.39c-2.6-.68-2.26-2.66-5.19-2.63s-4.79,3-5.65,5Z" style="fill: rgb(255, 255, 255); opacity: 0.3; transform-origin: 275.165px 248.64px;" class="animable"></path></g><path d="M220.17,251.46c0-21.05,21-15.19,31.74-23.24,13.8-10.36,25.67,2.19,25.67,23.24Z" style="fill: rgb(227, 155, 73); transform-origin: 248.875px 237.99px;" id="el5ayu6ucwg4" class="animable"></path><g id="el98iupij2hp"><path d="M220.17,251.46c0-21.05,21-15.19,31.74-23.24,13.8-10.36,25.67,2.19,25.67,23.24Z" style="fill: rgb(255, 255, 255); opacity: 0.1; transform-origin: 248.875px 237.99px;" class="animable"></path></g><g id="elx2u7e81mh5"><path d="M275.17,251.46H222.65c1.58-17.06,19.34-12.3,29.12-19.64C264.38,222.36,274.33,232.93,275.17,251.46Z" style="fill: rgb(255, 255, 255); opacity: 0.3; transform-origin: 248.91px 239.875px;" class="animable"></path></g><g id="elhskbaohav9"><path d="M271.62,251.46H226.29c2.2-13.14,16.89-9.48,25.1-15.65C262,227.84,270.47,236.25,271.62,251.46Z" style="fill: rgb(255, 255, 255); opacity: 0.3; transform-origin: 248.955px 242.103px;" class="animable"></path></g><g id="elsfhqqr923ic"><path d="M267.93,251.46H230c3.13-8.56,14.39-6.24,20.91-11.13C259.4,233.92,266.32,239.89,267.93,251.46Z" style="fill: rgb(255, 255, 255); opacity: 0.3; transform-origin: 248.965px 244.584px;" class="animable"></path></g><g id="elx121y9z3j7"><path d="M265.16,251.46H234.35c4.19-3.57,11.6-2.91,16.28-6.42C257.34,240,262.92,243.52,265.16,251.46Z" style="fill: rgb(255, 255, 255); opacity: 0.3; transform-origin: 249.755px 247.078px;" class="animable"></path></g><g id="elz42h3f8aili"><path d="M261.93,251.46H247.77a12.61,12.61,0,0,0,2-1.2C254.74,246.52,259.09,247.49,261.93,251.46Z" style="fill: rgb(255, 255, 255); opacity: 0.3; transform-origin: 254.85px 249.686px;" class="animable"></path></g><path d="M252.41,230.26a1.11,1.11,0,0,0-.55-.69l-1.2-.63a1.39,1.39,0,0,1-.27-.21l0-.3a1,1,0,0,0-.31-.65l-.1-.91a1.1,1.1,0,0,0-1-1l-1.63-.15a1.09,1.09,0,0,1-.81-.48l-.79-1.17a1.1,1.1,0,0,0-1.21-.44l-1.77.5a1.05,1.05,0,0,1-.85-.1l-1.45-.85a1.09,1.09,0,0,0-1.22.07l-1.47,1.12a1.11,1.11,0,0,1-.81.21l-1.83-.24a1.12,1.12,0,0,0-1.1.54l-.83,1.46a1.08,1.08,0,0,1-.69.51l-1.79.44a1.11,1.11,0,0,0-.83,1l-.1,1.41a1.12,1.12,0,0,1-.47.82l-1.34.93a1.08,1.08,0,0,0-.38,1.33l.36.85a1.09,1.09,0,0,0,.05.71l.13.29a1.17,1.17,0,0,1-.14.3l-.73,1.15a1.1,1.1,0,0,0-.13.88c.06.21.34,1.27.41,1.55a1.13,1.13,0,0,0,.36.56l.86.73-.08.7a1,1,0,0,0,.08.57c.08.19.34,1.37.4,1.54a1.08,1.08,0,0,0,.71.64l1.44.42a1.09,1.09,0,0,1,.72.67l.45,1.22a1.1,1.1,0,0,0,1.14.71l1.74-.16a1.07,1.07,0,0,1,.85.28l1.14,1.06a1.08,1.08,0,0,0,1.23.17l1.68-.83a1.11,1.11,0,0,1,.84-.06l1.69.57a1.08,1.08,0,0,0,1.16-.31l1.19-1.33a1.09,1.09,0,0,1,.76-.37l1.87-.1a1.12,1.12,0,0,0,1-.77l.46-1.48a1.08,1.08,0,0,1,.6-.67l1.6-.72a1.1,1.1,0,0,0,.63-1.18l-.21-1.28a1.1,1.1,0,0,1,.29-1l1-1.07a1.1,1.1,0,0,0,.29-1c0-.16-.39-1.25-.4-1.45a1.09,1.09,0,0,0-.22-.56l-.42-.56.39-1.07a1.05,1.05,0,0,0,0-.7C252.73,231.52,252.46,230.47,252.41,230.26Z" style="fill: rgb(227, 155, 73); transform-origin: 240.292px 235.383px;" id="eli5z4ndpb9tf" class="animable"></path><g id="elvwlpgsb7th"><path d="M252.41,230.26a1.11,1.11,0,0,0-.55-.69l-1.2-.63a1.39,1.39,0,0,1-.27-.21l0-.3a1,1,0,0,0-.31-.65l-.1-.91a1.1,1.1,0,0,0-1-1l-1.63-.15a1.09,1.09,0,0,1-.81-.48l-.79-1.17a1.1,1.1,0,0,0-1.21-.44l-1.77.5a1.05,1.05,0,0,1-.85-.1l-1.45-.85a1.09,1.09,0,0,0-1.22.07l-1.47,1.12a1.11,1.11,0,0,1-.81.21l-1.83-.24a1.12,1.12,0,0,0-1.1.54l-.83,1.46a1.08,1.08,0,0,1-.69.51l-1.79.44a1.11,1.11,0,0,0-.83,1l-.1,1.41a1.12,1.12,0,0,1-.47.82l-1.34.93a1.08,1.08,0,0,0-.38,1.33l.36.85a1.09,1.09,0,0,0,.05.71l.13.29a1.17,1.17,0,0,1-.14.3l-.73,1.15a1.1,1.1,0,0,0-.13.88c.06.21.34,1.27.41,1.55a1.13,1.13,0,0,0,.36.56l.86.73-.08.7a1,1,0,0,0,.08.57c.08.19.34,1.37.4,1.54a1.08,1.08,0,0,0,.71.64l1.44.42a1.09,1.09,0,0,1,.72.67l.45,1.22a1.1,1.1,0,0,0,1.14.71l1.74-.16a1.07,1.07,0,0,1,.85.28l1.14,1.06a1.08,1.08,0,0,0,1.23.17l1.68-.83a1.11,1.11,0,0,1,.84-.06l1.69.57a1.08,1.08,0,0,0,1.16-.31l1.19-1.33a1.09,1.09,0,0,1,.76-.37l1.87-.1a1.12,1.12,0,0,0,1-.77l.46-1.48a1.08,1.08,0,0,1,.6-.67l1.6-.72a1.1,1.1,0,0,0,.63-1.18l-.21-1.28a1.1,1.1,0,0,1,.29-1l1-1.07a1.1,1.1,0,0,0,.29-1c0-.16-.39-1.25-.4-1.45a1.09,1.09,0,0,0-.22-.56l-.42-.56.39-1.07a1.05,1.05,0,0,0,0-.7C252.73,231.52,252.46,230.47,252.41,230.26Z" style="fill: rgb(255, 255, 255); opacity: 0.3; transform-origin: 240.292px 235.383px;" class="animable"></path></g><g id="elhqfmu9pf7t"><path d="M237.75,224.4l1.47-1.12a1.09,1.09,0,0,1,1.22-.07l1.45.85a1.05,1.05,0,0,0,.85.1l1.77-.5a1.1,1.1,0,0,1,1.21.44l.79,1.17a1.09,1.09,0,0,0,.81.48l1.63.15a1.1,1.1,0,0,1,1,1l.14,1.22a1.11,1.11,0,0,0,.58.85l1.2.63a1.12,1.12,0,0,1,.52,1.35l-.44,1.18a1.11,1.11,0,0,0,.15,1l.73,1a1.08,1.08,0,0,1-.09,1.42l-1,1.07a1.09,1.09,0,0,0-.29.94l.21,1.29A1.08,1.08,0,0,1,251,240l-1.6.72a1.09,1.09,0,0,0-.59.67l-.47,1.48a1.07,1.07,0,0,1-1,.76l-1.87.11a1.13,1.13,0,0,0-.76.37l-1.18,1.33a1.09,1.09,0,0,1-1.17.31l-1.69-.57a1.11,1.11,0,0,0-.84.06l-1.67.83a1.11,1.11,0,0,1-1.24-.18l-1.13-1.05a1.11,1.11,0,0,0-.85-.29l-1.75.17a1.09,1.09,0,0,1-1.13-.71l-.46-1.22a1.09,1.09,0,0,0-.72-.68l-1.43-.41a1.09,1.09,0,0,1-.78-1.19l.15-1.21a1.12,1.12,0,0,0-.38-1l-1-.81a1.11,1.11,0,0,1-.22-1.43L228,235a1.09,1.09,0,0,0,.09-1l-.49-1.13a1.08,1.08,0,0,1,.38-1.33l1.34-.93a1.12,1.12,0,0,0,.47-.82l.1-1.41a1.11,1.11,0,0,1,.83-1l1.79-.44a1.08,1.08,0,0,0,.69-.51l.83-1.46a1.12,1.12,0,0,1,1.1-.54l1.83.24A1.11,1.11,0,0,0,237.75,224.4Z" style="fill: rgb(255, 255, 255); opacity: 0.6; transform-origin: 240.053px 234.62px;" class="animable"></path></g><path d="M243.05,240.66c-3.44.92-7-.64-8.06-3.67-1-2.65.68-5.69,3.67-6.78a6.12,6.12,0,0,1,4.32,0,4.79,4.79,0,0,1,2.85,2.84,3.81,3.81,0,0,1-7.12,2.58,2.37,2.37,0,0,1,.18-1.94,2.94,2.94,0,0,1,1.55-1.3,2.7,2.7,0,0,1,3.05.76.54.54,0,0,1-.24.84h0a.54.54,0,0,1-.61-.19,1.64,1.64,0,0,0-1.83-.39,1.77,1.77,0,0,0-1,.8,1.27,1.27,0,0,0-.11,1.05,2.74,2.74,0,0,0,5.09-1.84,3.77,3.77,0,0,0-2.23-2.21,5.07,5.07,0,0,0-3.56,0c-2.43.88-3.79,3.3-3,5.39,1,2.67,4.27,3.93,7.35,2.81a6.36,6.36,0,0,0,3.46-2.88,4.8,4.8,0,0,0,.39-4c-1.29-3.55-5.67-5.23-9.76-3.75-3.9,1.42-6.16,5.22-5.23,8.65a.55.55,0,0,1-.33.65h0a.54.54,0,0,1-.71-.36c-1.08-4,1.46-8.35,5.91-10,4.65-1.68,9.64.29,11.13,4.4a5.86,5.86,0,0,1-.45,4.87,7.5,7.5,0,0,1-4,3.38C243.5,240.53,243.27,240.6,243.05,240.66Z" style="fill: rgb(227, 155, 73); transform-origin: 239.732px 234.021px;" id="ela70d19eudn6" class="animable"></path><path d="M330,224.83c2.59,5.1,3.53,13.25-5.66,17.94-10.22,5.21-22,2.61-24.65-2.49s7.37-15.37,13.86-18.68S327.4,219.74,330,224.83Z" style="fill: rgb(227, 155, 73); transform-origin: 315.514px 232.721px;" id="el2ibmnprsgb9" class="animable"></path><g id="el4we44te321w"><path d="M330,224.83c2.59,5.1,3.53,13.25-5.66,17.94-10.22,5.21-22,2.61-24.65-2.49s7.37-15.37,13.86-18.68S327.4,219.74,330,224.83Z" style="fill: rgb(255, 255, 255); opacity: 0.4; transform-origin: 315.514px 232.721px;" class="animable"></path></g><g id="elgglb29rqiw5"><path d="M330,224.83c2.59,5.1-.56,11.91-7.05,15.22s-20.66,5.33-23.26.23,7.37-15.37,13.86-18.68S327.4,219.74,330,224.83Z" style="fill: rgb(255, 255, 255); opacity: 0.7; transform-origin: 315.087px 231.599px;" class="animable"></path></g><path d="M325.3,226.14c1.3,2.54-.86,6.23-4.81,8.24s-8.2,1.59-9.49-.95.86-6.23,4.81-8.24S324,223.6,325.3,226.14Z" style="fill: rgb(227, 155, 73); transform-origin: 318.152px 229.785px;" id="elsrd7cgxnwad" class="animable"></path><path d="M321.73,237.45c.9.42,1.06,2,.34,3.53s-2,2.42-2.93,2-3.78-3.28-3.06-4.8S320.82,237,321.73,237.45Z" style="fill: rgb(227, 155, 73); transform-origin: 319.243px 240.076px;" id="el8umgnb6yf8d" class="animable"></path><g id="elw8fdg3s1pb"><path d="M321.73,237.45c.9.42,1.06,2,.34,3.53s-2,2.42-2.93,2-3.78-3.28-3.06-4.8S320.82,237,321.73,237.45Z" style="fill: rgb(255, 255, 255); opacity: 0.8; transform-origin: 319.243px 240.076px;" class="animable"></path></g><path d="M321.73,237.45a4.38,4.38,0,0,0-.72-.21,2.88,2.88,0,0,1-.67,2.61c-.38.65-.1,1.25-.62,2a1.52,1.52,0,0,1-1.31.57,3.39,3.39,0,0,0,.73.51c.9.43,2.21-.46,2.93-2S322.63,237.87,321.73,237.45Z" style="fill: rgb(227, 155, 73); transform-origin: 320.466px 240.139px;" id="elg1z3dhx5o3r" class="animable"></path><g id="el55l3tf0r11e"><path d="M321.73,237.45a4.38,4.38,0,0,0-.72-.21,2.88,2.88,0,0,1-.67,2.61c-.38.65-.1,1.25-.62,2a1.52,1.52,0,0,1-1.31.57,3.39,3.39,0,0,0,.73.51c.9.43,2.21-.46,2.93-2S322.63,237.87,321.73,237.45Z" style="fill: rgb(255, 255, 255); opacity: 0.4; transform-origin: 320.466px 240.139px;" class="animable"></path></g><path d="M320.51,245.59c0,1-1.37,1.81-3.05,1.81s-3-.81-3-1.81,1.36-4.81,3-4.81S320.51,244.59,320.51,245.59Z" style="fill: rgb(227, 155, 73); transform-origin: 317.485px 244.09px;" id="el8bd0vd5r06r" class="animable"></path><g id="ela5xuz2nz4wa"><path d="M320.51,245.59c0,1-1.37,1.81-3.05,1.81s-3-.81-3-1.81,1.36-4.81,3-4.81S320.51,244.59,320.51,245.59Z" style="fill: rgb(255, 255, 255); opacity: 0.7; transform-origin: 317.485px 244.09px;" class="animable"></path></g><path d="M320.51,245.59a3.17,3.17,0,0,0-.12-.74,2.9,2.9,0,0,1-2.65.5c-.75-.07-1.17.44-2.11.3a1.49,1.49,0,0,1-1.07-.94,3.72,3.72,0,0,0-.15.88c0,1,1.36,1.81,3,1.81S320.51,246.59,320.51,245.59Z" style="fill: rgb(227, 155, 73); transform-origin: 317.46px 246.055px;" id="elusn79pg48p" class="animable"></path><g id="eltysq5yn6u6c"><path d="M320.51,245.59a3.17,3.17,0,0,0-.12-.74,2.9,2.9,0,0,1-2.65.5c-.75-.07-1.17.44-2.11.3a1.49,1.49,0,0,1-1.07-.94,3.72,3.72,0,0,0-.15.88c0,1,1.36,1.81,3,1.81S320.51,246.59,320.51,245.59Z" style="fill: rgb(255, 255, 255); opacity: 0.4; transform-origin: 317.46px 246.055px;" class="animable"></path></g><path d="M323.21,236c0-1,1.37-1.81,3.05-1.81s3.05.82,3.05,1.81-1.36,4.82-3.05,4.82S323.21,237,323.21,236Z" style="fill: rgb(227, 155, 73); transform-origin: 326.26px 237.505px;" id="elyoceqhkpur" class="animable"></path><g id="elspy0xmtdmi"><path d="M323.21,236c0-1,1.37-1.81,3.05-1.81s3.05.82,3.05,1.81-1.36,4.82-3.05,4.82S323.21,237,323.21,236Z" style="fill: rgb(255, 255, 255); opacity: 0.8; transform-origin: 326.26px 237.505px;" class="animable"></path></g><path d="M323.21,236a3.17,3.17,0,0,0,.12.74,2.9,2.9,0,0,1,2.65-.5c.75.07,1.17-.44,2.11-.3a1.49,1.49,0,0,1,1.07.94,3.72,3.72,0,0,0,.15-.88c0-1-1.36-1.81-3.05-1.81S323.21,235,323.21,236Z" style="fill: rgb(227, 155, 73); transform-origin: 326.26px 235.535px;" id="elb044awf153g" class="animable"></path><g id="elpaimd8riil"><path d="M323.21,236a3.17,3.17,0,0,0,.12.74,2.9,2.9,0,0,1,2.65-.5c.75.07,1.17-.44,2.11-.3a1.49,1.49,0,0,1,1.07.94,3.72,3.72,0,0,0,.15-.88c0-1-1.36-1.81-3.05-1.81S323.21,235,323.21,236Z" style="fill: rgb(255, 255, 255); opacity: 0.4; transform-origin: 326.26px 235.535px;" class="animable"></path></g><path d="M321.42,243c-1-.22-1.46-1.74-1.09-3.38s1.47-2.79,2.45-2.57,4.38,2.4,4,4S322.39,243.26,321.42,243Z" style="fill: rgb(227, 155, 73); transform-origin: 323.506px 240.04px;" id="eljsubgx7q4lg" class="animable"></path><g id="el5imxrt466co"><path d="M321.42,243c-1-.22-1.46-1.74-1.09-3.38s1.47-2.79,2.45-2.57,4.38,2.4,4,4S322.39,243.26,321.42,243Z" style="fill: rgb(255, 255, 255); opacity: 0.7; transform-origin: 323.506px 240.04px;" class="animable"></path></g><path d="M321.42,243a3.59,3.59,0,0,0,.74.05,2.85,2.85,0,0,1,.11-2.69c.23-.72-.18-1.25.17-2.13a1.52,1.52,0,0,1,1.15-.84,3.84,3.84,0,0,0-.81-.34c-1-.22-2.07.93-2.45,2.57S320.44,242.82,321.42,243Z" style="fill: rgb(227, 155, 73); transform-origin: 321.896px 240.038px;" id="el36ths65xrut" class="animable"></path><g id="el551opdbmacx"><path d="M321.42,243a3.59,3.59,0,0,0,.74.05,2.85,2.85,0,0,1,.11-2.69c.23-.72-.18-1.25.17-2.13a1.52,1.52,0,0,1,1.15-.84,3.84,3.84,0,0,0-.81-.34c-1-.22-2.07.93-2.45,2.57S320.44,242.82,321.42,243Z" style="fill: rgb(255, 255, 255); opacity: 0.4; transform-origin: 321.896px 240.038px;" class="animable"></path></g><path d="M331.71,232.42c.91-.42,2.22.48,2.92,2s.55,3.11-.35,3.53-4.94.78-5.65-.75S330.8,232.84,331.71,232.42Z" style="fill: rgb(227, 155, 73); transform-origin: 331.794px 235.315px;" id="el28xa4ysqw2" class="animable"></path><g id="elobqw0d0lsa"><path d="M331.71,232.42c.91-.42,2.22.48,2.92,2s.55,3.11-.35,3.53-4.94.78-5.65-.75S330.8,232.84,331.71,232.42Z" style="fill: rgb(255, 255, 255); opacity: 0.7; transform-origin: 331.794px 235.315px;" class="animable"></path></g><path d="M331.71,232.42a3.21,3.21,0,0,0-.62.42,2.89,2.89,0,0,1,1.57,2.19c.25.71.89.88,1.16,1.79a1.5,1.5,0,0,1-.4,1.36,3.87,3.87,0,0,0,.86-.22c.9-.42,1.06-2,.35-3.53S332.62,232,331.71,232.42Z" style="fill: rgb(227, 155, 73); transform-origin: 333.082px 235.248px;" id="elnu303cmrxc" class="animable"></path><g id="el980qkrsb6fp"><path d="M331.71,232.42a3.21,3.21,0,0,0-.62.42,2.89,2.89,0,0,1,1.57,2.19c.25.71.89.88,1.16,1.79a1.5,1.5,0,0,1-.4,1.36,3.87,3.87,0,0,0,.86-.22c.9-.42,1.06-2,.35-3.53S332.62,232,331.71,232.42Z" style="fill: rgb(255, 255, 255); opacity: 0.4; transform-origin: 333.082px 235.248px;" class="animable"></path></g><path d="M328.81,237.11c.75-.65,2.26-.16,3.37,1.11s1.39,2.83.64,3.49-4.52,2.13-5.63.87S328.05,237.77,328.81,237.11Z" style="fill: rgb(227, 155, 73); transform-origin: 330.049px 239.949px;" id="el87anluwqql6" class="animable"></path><g id="ellbhynqy8nl"><path d="M328.81,237.11c.75-.65,2.26-.16,3.37,1.11s1.39,2.83.64,3.49-4.52,2.13-5.63.87S328.05,237.77,328.81,237.11Z" style="fill: rgb(255, 255, 255); opacity: 0.7; transform-origin: 330.049px 239.949px;" class="animable"></path></g><path d="M328.81,237.11a4,4,0,0,0-.48.57,2.91,2.91,0,0,1,2.12,1.67c.44.61,1.1.59,1.61,1.39a1.51,1.51,0,0,1,0,1.43,4,4,0,0,0,.76-.46c.75-.66.46-2.22-.64-3.49S329.56,236.46,328.81,237.11Z" style="fill: rgb(227, 155, 73); transform-origin: 330.784px 239.497px;" id="els2r4bvo58gt" class="animable"></path><g id="eltiwy70hykbq"><path d="M328.81,237.11a4,4,0,0,0-.48.57,2.91,2.91,0,0,1,2.12,1.67c.44.61,1.1.59,1.61,1.39a1.51,1.51,0,0,1,0,1.43,4,4,0,0,0,.76-.46c.75-.66.46-2.22-.64-3.49S329.56,236.46,328.81,237.11Z" style="fill: rgb(255, 255, 255); opacity: 0.4; transform-origin: 330.784px 239.497px;" class="animable"></path></g><path d="M334.29,237.24c.75-.66,2.26-.16,3.37,1.11s1.4,2.83.64,3.49-4.52,2.13-5.63.86S333.54,237.9,334.29,237.24Z" style="fill: rgb(227, 155, 73); transform-origin: 335.532px 240.075px;" id="elatteoed526" class="animable"></path><g id="ela5yhap19r8a"><path d="M334.29,237.24c.75-.66,2.26-.16,3.37,1.11s1.4,2.83.64,3.49-4.52,2.13-5.63.86S333.54,237.9,334.29,237.24Z" style="fill: rgb(255, 255, 255); opacity: 0.8; transform-origin: 335.532px 240.075px;" class="animable"></path></g><path d="M334.29,237.24a3.14,3.14,0,0,0-.47.57,2.89,2.89,0,0,1,2.11,1.67c.44.61,1.11.59,1.62,1.39a1.53,1.53,0,0,1,0,1.43,3.58,3.58,0,0,0,.75-.46c.76-.66.47-2.22-.64-3.49S335,236.58,334.29,237.24Z" style="fill: rgb(227, 155, 73); transform-origin: 336.272px 239.624px;" id="elk3excevbhp" class="animable"></path><g id="elr6nwqwnyqpc"><path d="M334.29,237.24a3.14,3.14,0,0,0-.47.57,2.89,2.89,0,0,1,2.11,1.67c.44.61,1.11.59,1.62,1.39a1.53,1.53,0,0,1,0,1.43,3.58,3.58,0,0,0,.75-.46c.76-.66.47-2.22-.64-3.49S335,236.58,334.29,237.24Z" style="fill: rgb(255, 255, 255); opacity: 0.4; transform-origin: 336.272px 239.624px;" class="animable"></path></g><path d="M330,247c-.52.85-2.11.84-3.55,0s-2.19-2.27-1.68-3.12,3.65-3.42,5.1-2.55S330.53,246.09,330,247Z" style="fill: rgb(227, 155, 73); transform-origin: 327.654px 244.393px;" id="elngv8orwdhnk" class="animable"></path><g id="elmv30j64tlql"><path d="M330,247c-.52.85-2.11.84-3.55,0s-2.19-2.27-1.68-3.12,3.65-3.42,5.1-2.55S330.53,246.09,330,247Z" style="fill: rgb(255, 255, 255); opacity: 0.7; transform-origin: 327.654px 244.393px;" class="animable"></path></g><path d="M330,247a3.85,3.85,0,0,0,.28-.69,2.91,2.91,0,0,1-2.53-.95c-.6-.44-1.23-.22-2-.82a1.52,1.52,0,0,1-.44-1.36,3.69,3.69,0,0,0-.58.67c-.51.85.24,2.25,1.68,3.12S329.5,247.8,330,247Z" style="fill: rgb(227, 155, 73); transform-origin: 327.425px 245.396px;" id="elgpluh431btj" class="animable"></path><g id="elv4r38qscjpr"><path d="M330,247a3.85,3.85,0,0,0,.28-.69,2.91,2.91,0,0,1-2.53-.95c-.6-.44-1.23-.22-2-.82a1.52,1.52,0,0,1-.44-1.36,3.69,3.69,0,0,0-.58.67c-.51.85.24,2.25,1.68,3.12S329.5,247.8,330,247Z" style="fill: rgb(255, 255, 255); opacity: 0.4; transform-origin: 327.425px 245.396px;" class="animable"></path></g><path d="M332.9,247.87c-.91.39-2.2-.54-2.87-2.08s-.47-3.12.45-3.52,4.95-.66,5.62.89S333.82,247.47,332.9,247.87Z" style="fill: rgb(227, 155, 73); transform-origin: 332.916px 244.961px;" id="elga41i7u91uf" class="animable"></path><g id="el2s75t7unpp"><path d="M332.9,247.87c-.91.39-2.2-.54-2.87-2.08s-.47-3.12.45-3.52,4.95-.66,5.62.89S333.82,247.47,332.9,247.87Z" style="fill: rgb(255, 255, 255); opacity: 0.8; transform-origin: 332.916px 244.961px;" class="animable"></path></g><path d="M332.9,247.87a3.44,3.44,0,0,0,.63-.4,2.93,2.93,0,0,1-1.51-2.23c-.23-.72-.87-.9-1.12-1.82a1.51,1.51,0,0,1,.44-1.36,3.82,3.82,0,0,0-.86.21c-.92.4-1.12,2-.45,3.52S332,248.26,332.9,247.87Z" style="fill: rgb(227, 155, 73); transform-origin: 331.582px 245.009px;" id="el44viposya1p" class="animable"></path><g id="elckgunjmdd9"><path d="M332.9,247.87a3.44,3.44,0,0,0,.63-.4,2.93,2.93,0,0,1-1.51-2.23c-.23-.72-.87-.9-1.12-1.82a1.51,1.51,0,0,1,.44-1.36,3.82,3.82,0,0,0-.86.21c-.92.4-1.12,2-.45,3.52S332,248.26,332.9,247.87Z" style="fill: rgb(255, 255, 255); opacity: 0.4; transform-origin: 331.582px 245.009px;" class="animable"></path></g><path d="M340.71,242.48c.89.47,1,2.06.17,3.55s-2.15,2.31-3,1.84-3.61-3.47-2.82-5S339.83,242,340.71,242.48Z" style="fill: rgb(227, 155, 73); transform-origin: 338.182px 244.96px;" id="eleqobxt01ld" class="animable"></path><g id="el1lngbeidgou"><path d="M340.71,242.48c.89.47,1,2.06.17,3.55s-2.15,2.31-3,1.84-3.61-3.47-2.82-5S339.83,242,340.71,242.48Z" style="fill: rgb(255, 255, 255); opacity: 0.7; transform-origin: 338.182px 244.96px;" class="animable"></path></g><path d="M340.71,242.48a3.44,3.44,0,0,0-.7-.24,2.88,2.88,0,0,1-.81,2.57c-.41.63-.15,1.25-.72,2a1.49,1.49,0,0,1-1.33.5,3.32,3.32,0,0,0,.7.55c.88.47,2.24-.36,3-1.84S341.6,243,340.71,242.48Z" style="fill: rgb(227, 155, 73); transform-origin: 339.275px 245.116px;" id="elff3j0hittkv" class="animable"></path><g id="elg4733tin6k"><path d="M340.71,242.48a3.44,3.44,0,0,0-.7-.24,2.88,2.88,0,0,1-.81,2.57c-.41.63-.15,1.25-.72,2a1.49,1.49,0,0,1-1.33.5,3.32,3.32,0,0,0,.7.55c.88.47,2.24-.36,3-1.84S341.6,243,340.71,242.48Z" style="fill: rgb(255, 255, 255); opacity: 0.4; transform-origin: 339.275px 245.116px;" class="animable"></path></g><path d="M325.47,242.09c.9.42,1.06,2,.34,3.53s-2,2.41-2.93,2-3.78-3.28-3.06-4.81S324.56,241.66,325.47,242.09Z" style="fill: rgb(227, 155, 73); transform-origin: 322.983px 244.715px;" id="el4cnslhy1dd9" class="animable"></path><g id="eldycyixg2q3f"><path d="M325.47,242.09c.9.42,1.06,2,.34,3.53s-2,2.41-2.93,2-3.78-3.28-3.06-4.81S324.56,241.66,325.47,242.09Z" style="fill: rgb(255, 255, 255); opacity: 0.8; transform-origin: 322.983px 244.715px;" class="animable"></path></g><path d="M325.47,242.09a3,3,0,0,0-.72-.21,2.89,2.89,0,0,1-.67,2.61c-.38.65-.1,1.25-.62,2a1.52,1.52,0,0,1-1.31.57,3.39,3.39,0,0,0,.73.51c.9.42,2.21-.47,2.93-2S326.37,242.51,325.47,242.09Z" style="fill: rgb(227, 155, 73); transform-origin: 324.206px 244.777px;" id="eld1s0wwzcy84" class="animable"></path><g id="elo9v69pq2eli"><path d="M325.47,242.09a3,3,0,0,0-.72-.21,2.89,2.89,0,0,1-.67,2.61c-.38.65-.1,1.25-.62,2a1.52,1.52,0,0,1-1.31.57,3.39,3.39,0,0,0,.73.51c.9.42,2.21-.47,2.93-2S326.37,242.51,325.47,242.09Z" style="fill: rgb(255, 255, 255); opacity: 0.4; transform-origin: 324.206px 244.777px;" class="animable"></path></g><polygon points="259.63 317.23 301.78 317.23 300.41 309.35 261 309.35 259.63 317.23" style="fill: rgb(38, 50, 56); transform-origin: 280.705px 313.29px;" id="elth7g0t6nui" class="animable"></polygon><g id="ela0j58tmlclc"><path d="M261,309.35h39.41l.43,2.46a46.78,46.78,0,0,1-13.87,2.1H274.43a46.77,46.77,0,0,1-13.86-2.1Z" style="opacity: 0.7; transform-origin: 280.705px 311.63px;" class="animable"></path></g><path d="M344,247.2l-13.32,34.12A46.91,46.91,0,0,1,287,311.17H274.43a46.91,46.91,0,0,1-43.69-29.85L217.42,247.2Z" style="fill: rgb(38, 50, 56); transform-origin: 280.71px 279.185px;" id="elazg079nywki" class="animable"></path><polygon points="226.9 261.03 226.9 255.2 241.29 255.2 241.29 261.03 250.2 261.03 250.2 255.2 264.6 255.2 264.6 261.03 273.51 261.03 273.51 255.2 287.9 255.2 287.9 261.03 296.81 261.03 296.81 255.2 311.21 255.2 311.21 261.03 320.12 261.03 320.12 255.2 334.51 255.2 334.51 261.03 338.59 261.03 337.52 263.77 331.77 263.77 331.77 257.94 322.86 257.94 322.86 263.77 308.46 263.77 308.46 257.94 299.55 257.94 299.55 263.77 285.16 263.77 285.16 257.94 276.25 257.94 276.25 263.77 261.85 263.77 261.85 257.94 252.94 257.94 252.94 263.77 238.55 263.77 238.55 257.94 229.64 257.94 229.64 263.77 223.89 263.77 222.82 261.03 226.9 261.03" style="fill: rgb(227, 155, 73); transform-origin: 280.705px 259.485px;" id="elntgy44isf1" class="animable"></polygon></g><g id="freepik--Table--inject-211" class="animable" style="transform-origin: 280.2px 365.64px;"><polygon points="324.36 403.18 327.36 415 319.53 415 318.53 411.28 241.86 411.28 240.86 415 233.03 415 236.03 403.18 324.36 403.18" style="fill: rgb(38, 50, 56); transform-origin: 280.195px 409.09px;" id="elh0q1yjh98ch" class="animable"></polygon><g id="eldohsmq63ifq"><polygon points="324.36 403.18 327.36 415 319.53 415 318.53 411.28 241.86 411.28 240.86 415 233.03 415 236.03 403.18 324.36 403.18" style="fill: rgb(255, 255, 255); opacity: 0.5; transform-origin: 280.195px 409.09px;" class="animable"></polygon></g><g id="el6r4dt51wn3"><polygon points="275.29 411.28 273.76 403.18 286.91 403.18 285.22 411.28 275.29 411.28" style="opacity: 0.2; transform-origin: 280.335px 407.23px;" class="animable"></polygon></g><polygon points="275.69 329.46 284.69 329.46 284.69 405.39 282.69 415 277.69 415 275.69 404.39 275.69 329.46" style="fill: rgb(38, 50, 56); transform-origin: 280.19px 372.23px;" id="elneezdk9u39d" class="animable"></polygon><g id="eleddrgkcxpd"><polygon points="275.69 329.46 284.69 329.46 284.69 405.39 282.69 415 277.69 415 275.69 404.39 275.69 329.46" style="fill: rgb(255, 255, 255); opacity: 0.5; transform-origin: 280.19px 372.23px;" class="animable"></polygon></g><g id="el1qbygzt0fts"><rect x="275.69" y="329.46" width="9" height="8.52" style="opacity: 0.2; transform-origin: 280.19px 333.72px;" class="animable"></rect></g><g id="elzmdce8vbc7b"><path d="M227.08,324.5H333.31a3.47,3.47,0,0,1,3.47,3.47v4.75a0,0,0,0,1,0,0H223.61a0,0,0,0,1,0,0V328A3.47,3.47,0,0,1,227.08,324.5Z" style="fill: rgb(227, 155, 73); transform-origin: 280.195px 328.61px; transform: rotate(180deg);" class="animable"></path></g><g id="elf43sgddtq5u"><path d="M284.17,324.5h49.14a3.47,3.47,0,0,1,3.47,3.47v4.75a0,0,0,0,1,0,0H280.7a0,0,0,0,1,0,0V328A3.47,3.47,0,0,1,284.17,324.5Z" style="fill: rgb(255, 255, 255); opacity: 0.5; transform-origin: 308.74px 328.61px; transform: rotate(180deg);" class="animable"></path></g><path d="M219,324.5H341.4a4.11,4.11,0,0,0,4.11-4.11h0a4.11,4.11,0,0,0-4.11-4.11H219a4.11,4.11,0,0,0-4.11,4.11h0A4.11,4.11,0,0,0,219,324.5Z" style="fill: rgb(227, 155, 73); transform-origin: 280.2px 320.39px;" id="elry21g04d6z" class="animable"></path><g id="el1ylhx3210ba"><path d="M219,324.5H341.4a4.11,4.11,0,0,0,4.11-4.11h0a4.11,4.11,0,0,0-4.11-4.11H219a4.11,4.11,0,0,0-4.11,4.11h0A4.11,4.11,0,0,0,219,324.5Z" style="fill: rgb(255, 255, 255); opacity: 0.4; transform-origin: 280.2px 320.39px;" class="animable"></path></g><g id="elyzuksq2q4u"><path d="M276.37,316.28h64.79a4.27,4.27,0,0,1,4.34,3.89,4.11,4.11,0,0,1-4.1,4.33h-65a4.11,4.11,0,0,1-4.11-4.11h0A4.11,4.11,0,0,1,276.37,316.28Z" style="fill: rgb(255, 255, 255); opacity: 0.5; transform-origin: 308.898px 320.39px;" class="animable"></path></g></g><g id="freepik--Character--inject-211" class="animable" style="transform-origin: 158.284px 286.027px;"><path d="M141.82,167.48a3.32,3.32,0,0,1-.22-3.19c.82-1.76,2.44-3.85,1.46-5.19-1.39-1.92-3.57,3.18-3.57,3.18s-.57-5.77-2.41-5.16,0,4.93,0,4.93l-3.22,3.28Z" style="fill: rgb(38, 50, 56); transform-origin: 138.613px 162.277px;" id="elohn0dz2eop" class="animable"></path><g id="eltowmyel59ig"><path d="M141.82,167.48a3.32,3.32,0,0,1-.22-3.19c.82-1.76,2.44-3.85,1.46-5.19-1.39-1.92-3.57,3.18-3.57,3.18s-.57-5.77-2.41-5.16,0,4.93,0,4.93l-3.22,3.28Z" style="opacity: 0.7; transform-origin: 138.613px 162.277px;" class="animable"></path></g><path d="M168.7,207.53c7.49,8.91,26.05,1.58,26.05,1.58s2.76-6.66,4.84-7.36c1.45-.49,4.77-.18,5.76,1,1.17,1.37,2.21,5.53,1.3,7.08-1.2,2.06-9,4.17-9,4.17s-14.91,10-25.38,7.08S150.66,203,150.66,203l-.78-7.44S158.18,195,168.7,207.53Z" style="fill: rgb(255, 195, 189); transform-origin: 178.438px 208.585px;" id="ely84njs9qjps" class="animable"></path><path d="M169.76,207.72s-11.82-14.78-19.88-14.29c0,0-2.82,8.6,3.4,14.81s10.07,8.33,10.07,8.33Z" style="fill: rgb(227, 155, 73); transform-origin: 159.501px 204.994px;" id="elf0xtkc3br7n" class="animable"></path><g id="eldczsu6qtuzh"><path d="M169.76,207.72s-11.82-14.78-19.88-14.29c0,0-2.82,8.6,3.4,14.81s10.07,8.33,10.07,8.33Z" style="fill: rgb(255, 255, 255); opacity: 0.6; transform-origin: 159.501px 204.994px;" class="animable"></path></g><g id="elk8q3559kts"><path d="M153.28,208.24a13.53,13.53,0,0,1-2.56-3.55l.39-3.06c5.15,1.62,9,9.48,10.92,14.1A63.37,63.37,0,0,1,153.28,208.24Z" style="opacity: 0.1; transform-origin: 156.375px 208.68px;" class="animable"></path></g><path d="M172.74,209.55S168,212,166.9,219.49a5.48,5.48,0,0,1-2.24-1.75,3,3,0,0,1-2.09-1.45,14.89,14.89,0,0,1,6.8-9.42,1.66,1.66,0,0,1,1.18,1.68A2.16,2.16,0,0,1,172.74,209.55Z" style="fill: rgb(227, 155, 73); transform-origin: 167.655px 213.18px;" id="elsz2t4cs12ir" class="animable"></path><g id="el0wir6xtp9ahk"><path d="M172.74,209.55S168,212,166.9,219.49a5.48,5.48,0,0,1-2.24-1.75,3,3,0,0,1-2.09-1.45,14.89,14.89,0,0,1,6.8-9.42,1.66,1.66,0,0,1,1.18,1.68A2.16,2.16,0,0,1,172.74,209.55Z" style="fill: rgb(255, 255, 255); opacity: 0.7; transform-origin: 167.655px 213.18px;" class="animable"></path></g><path d="M141.06,190.72A75.83,75.83,0,0,0,123.68,195l.32,4.34,20.45-4.3Z" style="fill: rgb(227, 155, 73); transform-origin: 134.065px 195.03px;" id="el19ygxfdksem" class="animable"></path><g id="elsyn5m2owj6"><path d="M141.06,190.72A75.83,75.83,0,0,0,123.68,195l.32,4.34,20.45-4.3Z" style="opacity: 0.2; transform-origin: 134.065px 195.03px;" class="animable"></path></g><polygon points="132.68 392.06 130.08 407.89 121.98 407.89 121.99 392.06 132.68 392.06" style="fill: rgb(255, 195, 189); transform-origin: 127.33px 399.975px;" id="eles0de239pe" class="animable"></polygon><path d="M129.27,405.63l-7.56.14a.72.72,0,0,0-.68.56l-1.47,7.14a1.18,1.18,0,0,0,.9,1.39l.25,0c3.15-.1,6-.32,9.87-.37,4.63-.07,3.46.5,8.91.49,3.28,0,3.82-3.74,2.42-3.91-6.37-.7-8.24-2.61-10.73-4.85A2.86,2.86,0,0,0,129.27,405.63Z" style="fill: rgb(38, 50, 56); transform-origin: 131.085px 410.303px;" id="el0butuzwnrdjr" class="animable"></path><g id="elrnps050pnj"><polygon points="121.99 392.06 132.68 392.06 131.2 401.08 121.98 401.08 121.99 392.06" style="opacity: 0.1; transform-origin: 127.33px 396.57px;" class="animable"></polygon></g><path d="M123.52,261.46a106.23,106.23,0,0,0,1.87,25.73L125,328.8s-3.65,17.36-3.82,69.94h11.54s8.54-43.47,12.08-72.81S155.6,259.4,155.6,259.4Z" style="fill: rgb(38, 50, 56); transform-origin: 138.39px 329.07px;" id="elau5uf58jme9" class="animable"></path><g id="el15k0g09cw6k"><path d="M125,328.8l.43-41.61a107.26,107.26,0,0,1-1.91-24.84L135,262l19.26,4.21c-2.26,12.08-6.92,38-9.54,59.71-.68,5.65-1.55,11.81-2.5,18.09-5.59.19-12,.55-19.24,1.17A152.07,152.07,0,0,1,125,328.8Z" style="opacity: 0.7; transform-origin: 138.62px 303.59px;" class="animable"></path></g><polygon points="170.31 392.06 169.8 407.89 161.71 407.89 159.62 392.06 170.31 392.06" style="fill: rgb(255, 195, 189); transform-origin: 164.965px 399.975px;" id="el5fx2uvy5g69" class="animable"></polygon><path d="M169,405.63l-7.56.14a.71.71,0,0,0-.68.56l-1.47,7.14a1.17,1.17,0,0,0,.9,1.39l.25,0c3.15-.1,5.94-.32,9.87-.37,4.62-.07,3.46.5,8.9.49,3.28,0,3.82-3.74,2.43-3.91-6.38-.7-8.24-2.61-10.73-4.85A2.86,2.86,0,0,0,169,405.63Z" style="fill: rgb(38, 50, 56); transform-origin: 170.81px 410.303px;" id="el2eiux9kaqar" class="animable"></path><g id="elbd45hv9r169"><polygon points="170.02 401.08 160.81 401.08 159.62 392.06 170.31 392.06 170.02 401.08" style="opacity: 0.1; transform-origin: 164.965px 396.57px;" class="animable"></polygon></g><path d="M137.56,261.46a114.43,114.43,0,0,0,6.4,25.73l10,41.61s-3.72,17.36,5.38,69.94h11.54s3-43.47,1.34-72.81S164,259.4,164,259.4Z" style="fill: rgb(38, 50, 56); transform-origin: 155.14px 329.07px;" id="elopfswk869v" class="animable"></path><g id="elfur779sbyu"><path d="M172.5,331.54c.16,4.4.23,9,.24,13.67a130.52,130.52,0,0,0-19.47-1.33,107.76,107.76,0,0,1,.37-12.34Z" style="opacity: 0.7; transform-origin: 162.985px 338.375px;" class="animable"></path></g><path d="M127.26,256.84a27.63,27.63,0,0,1-5.58,0,17.23,17.23,0,0,1,.63,12l8.2-.34Z" style="fill: rgb(227, 155, 73); transform-origin: 126.095px 262.84px;" id="elrhxj16u2xrh" class="animable"></path><g id="el6v92bg431nt"><path d="M127.26,256.84a27.63,27.63,0,0,1-5.58,0,17.23,17.23,0,0,1,.63,12l8.2-.34Z" style="fill: rgb(255, 255, 255); opacity: 0.5; transform-origin: 126.095px 262.84px;" class="animable"></path></g><path d="M164.07,252.46s9.75,35.18,12.19,88.81c0,0-28.88-2.34-47.93,0,0,0,2.07-64.54-2.76-84.63Z" style="fill: rgb(227, 155, 73); transform-origin: 150.915px 296.865px;" id="eld0bkhuvjzza" class="animable"></path><g id="elpsp0o5mmjjh"><path d="M164.07,252.46s9.75,35.18,12.19,88.81c0,0-28.88-2.34-47.93,0,0,0,2.07-64.54-2.76-84.63Z" style="fill: rgb(255, 255, 255); opacity: 0.7; transform-origin: 150.915px 296.865px;" class="animable"></path></g><path d="M166,258.25s-26.7,3-43.52,2.28v2.75s17.24.5,44.13-2.73Z" style="fill: rgb(227, 155, 73); transform-origin: 144.545px 260.779px;" id="eliwpnpap2n8e" class="animable"></path><g id="elha7orlff8f4"><path d="M166,258.25s-26.7,3-43.52,2.28v2.75s17.24.5,44.13-2.73Z" style="fill: rgb(255, 255, 255); opacity: 0.4; transform-origin: 144.545px 260.779px;" class="animable"></path></g><polygon points="155.6 259.4 160.28 257.13 161.16 262.01 157.2 261.03 155.6 259.4" style="fill: rgb(227, 155, 73); transform-origin: 158.38px 259.57px;" id="eljwumq9j96hl" class="animable"></polygon><g id="elc3ukti460b"><polygon points="155.6 259.4 160.28 257.13 161.16 262.01 157.2 261.03 155.6 259.4" style="fill: rgb(255, 255, 255); opacity: 0.8; transform-origin: 158.38px 259.57px;" class="animable"></polygon></g><polygon points="154.91 259.73 149.12 258.35 149.34 262.68 153.54 261.45 154.91 259.73" style="fill: rgb(227, 155, 73); transform-origin: 152.015px 260.515px;" id="elbxx2xq02dk" class="animable"></polygon><g id="elfxdd049ny6t"><polygon points="154.91 259.73 149.12 258.35 149.34 262.68 153.54 261.45 154.91 259.73" style="fill: rgb(255, 255, 255); opacity: 0.9; transform-origin: 152.015px 260.515px;" class="animable"></polygon></g><polygon points="154.95 259.32 151.84 262.07 153.9 262.47 156.38 260.53 154.95 259.32" style="fill: rgb(227, 155, 73); transform-origin: 154.11px 260.895px;" id="elg9lxvagmgz" class="animable"></polygon><g id="el4dsav3g37nr"><polygon points="154.95 259.32 151.84 262.07 153.9 262.47 156.38 260.53 154.95 259.32" style="fill: rgb(255, 255, 255); opacity: 0.8; transform-origin: 154.11px 260.895px;" class="animable"></polygon></g><polygon points="155.4 258.66 153.55 259.44 156.38 262.31 158.19 261.45 155.4 258.66" style="fill: rgb(227, 155, 73); transform-origin: 155.87px 260.485px;" id="elki74n58xfdh" class="animable"></polygon><g id="el1nt3odua90xj"><polygon points="155.4 258.66 153.55 259.44 156.38 262.31 158.19 261.45 155.4 258.66" style="fill: rgb(255, 255, 255); opacity: 0.9; transform-origin: 155.87px 260.485px;" class="animable"></polygon></g><path d="M166.26,252.42c3.14-6.61,6-19.71-7.2-36.46l-9.18-22.53s-28.13.82-37.16,11.35c0,0,3.58,29.39,8.41,48.47a8.91,8.91,0,0,0,9.41,6.66l28.38-2.39A9,9,0,0,0,166.26,252.42Z" style="fill: rgb(227, 155, 73); transform-origin: 140.81px 226.687px;" id="elbaorhfljjxs" class="animable"></path><g id="el0koyq0uxyna"><path d="M166.26,252.42c3.14-6.61,6-19.71-7.2-36.46l-9.18-22.53s-28.13.82-37.16,11.35c0,0,3.58,29.39,8.41,48.47a8.91,8.91,0,0,0,9.41,6.66l28.38-2.39A9,9,0,0,0,166.26,252.42Z" style="fill: rgb(255, 255, 255); opacity: 0.6; transform-origin: 140.81px 226.687px;" class="animable"></path></g><path d="M123.85,216.12a3.55,3.55,0,1,0,2.29-4.47A3.55,3.55,0,0,0,123.85,216.12Zm1.49-.48,1-3.32,2.76,2.1-1,3.32Z" style="fill: rgb(227, 155, 73); transform-origin: 127.228px 215.029px;" id="eliglq8kbow8" class="animable"></path><path d="M196.22,187.08a4.15,4.15,0,0,0-2.15,1.29l-2.73.63a4,4,0,0,1,2.14-1.28Z" style="fill: rgb(38, 50, 56); transform-origin: 193.78px 188.04px;" id="el8mspg35ncyf" class="animable"></path><path d="M211.93,234.76l-10.38-44.71a4.09,4.09,0,0,0-4.91-3.06l-3.16.73a4.1,4.1,0,0,1,4.92,3.06l10.37,44.71Z" style="fill: rgb(38, 50, 56); transform-origin: 202.705px 211.187px;" id="elb1dy9dj8rf" class="animable"></path><g id="elkt5rn77f8hp"><path d="M211.93,234.76l-10.38-44.71a4.09,4.09,0,0,0-4.91-3.06l-3.16.73a4.1,4.1,0,0,1,4.92,3.06l10.37,44.71Z" style="fill: rgb(255, 255, 255); opacity: 0.5; transform-origin: 202.705px 211.187px;" class="animable"></path></g><path d="M208.48,235.73A7.45,7.45,0,0,0,223,232.37l-.15-.66c-.14-.58-3.5-.3-7.51.63s-7.15,2.16-7,2.74Z" style="fill: rgb(38, 50, 56); transform-origin: 215.763px 236.455px;" id="ele4gwzn997wr" class="animable"></path><g id="el86nxoi9iu7e"><path d="M208.48,235.73A7.45,7.45,0,0,0,223,232.37l-.15-.66c-.14-.58-3.5-.3-7.51.63s-7.15,2.16-7,2.74Z" style="fill: rgb(255, 255, 255); opacity: 0.7; transform-origin: 215.763px 236.455px;" class="animable"></path></g><g id="elseluhpo2ei"><path d="M220.53,232.94l-.15-.65c-.12-.53-2.83-.36-6.27.35.4-.1.81-.21,1.23-.3,4-.93,7.37-1.21,7.51-.63l.15.66a7.45,7.45,0,0,1-5.58,8.94,6.81,6.81,0,0,1-1.26.17A7.44,7.44,0,0,0,220.53,232.94Z" style="fill: rgb(255, 255, 255); opacity: 0.5; transform-origin: 218.651px 236.444px;" class="animable"></path></g><path d="M208.33,235.08c.13.59,3.49.31,7.5-.62s7.15-2.16,7-2.75-3.5-.3-7.51.63S208.19,234.5,208.33,235.08Z" style="fill: rgb(38, 50, 56); transform-origin: 215.58px 233.396px;" id="elflei536dyd8" class="animable"></path><g id="el59tyzh7h5wf"><path d="M116.92,210.76l2.25,1.93s2,6.23-3.49,12.73c-.83-5.15-1.51-9.84-2-13.45Z" style="opacity: 0.1; transform-origin: 116.603px 218.09px;" class="animable"></path></g><path d="M127.35,182.13c1.52,4.6,4.13,13.68.61,15.16-2.38,1,1,4.46,2,5.12,3.44,2.58,7.71,8,12,7.6,5.49-.49,5.5-7.66,4.14-9.81-.36-.57-.95-5.16-1.62-5.29-5.36-1-6.29-1.3-5.8-5.37Z" style="fill: rgb(255, 195, 189); transform-origin: 136.989px 196.08px;" id="elf2gicp4pj2i" class="animable"></path><path d="M143.73,199.32s-4.57,4.12-12.95,3.84l12.31,9.53Z" style="fill: rgb(38, 50, 56); transform-origin: 137.255px 206.005px;" id="elh4zh3wlqdqp" class="animable"></path><g id="elgd5za45yb59"><path d="M138.71,192.45c-2.38-.35-5.76-1.8-6.82-3.89-.77-1.46-.5-3.13.06-3.39l.26.15,6.43,4.22A6.71,6.71,0,0,0,138.71,192.45Z" style="opacity: 0.2; isolation: isolate; transform-origin: 135.062px 188.81px;" class="animable"></path></g><path d="M125.9,175.56c1.68,6.43,2.34,10.27,6.28,13,5.93,4.06,14.43-.52,14.7-7.31.24-6.15-3.6-15.6-10.48-16.94a9.07,9.07,0,0,0-10.65,7.12A9.18,9.18,0,0,0,125.9,175.56Z" style="fill: rgb(255, 195, 189); transform-origin: 136.237px 177.113px;" id="eloqxzg0mqq4" class="animable"></path><path d="M136.78,175.69c.1.53.47.9.81.83s.54-.55.44-1.08-.47-.9-.82-.83S136.67,175.16,136.78,175.69Z" style="fill: rgb(38, 50, 56); transform-origin: 137.402px 175.565px;" id="ellfnz0ooq0f" class="animable"></path><path d="M142.44,174.26c.1.52.47.9.82.83s.54-.56.43-1.08-.47-.91-.82-.84S142.33,173.72,142.44,174.26Z" style="fill: rgb(38, 50, 56); transform-origin: 143.065px 174.13px;" id="el1ggjxhnqqgv" class="animable"></path><path d="M140.26,174.89a18.88,18.88,0,0,0,3.43,4,3.17,3.17,0,0,1-2.45,1Z" style="fill: rgb(237, 132, 126); transform-origin: 141.975px 177.391px;" id="elgkhgha98bww" class="animable"></path><path d="M134.74,174.38a.43.43,0,0,1-.16,0,.33.33,0,0,1-.14-.42,3.18,3.18,0,0,1,2.27-1.79.33.33,0,0,1,.36.28.33.33,0,0,1-.27.36h0a2.48,2.48,0,0,0-1.79,1.43A.36.36,0,0,1,134.74,174.38Z" style="fill: rgb(38, 50, 56); transform-origin: 135.742px 173.278px;" id="elfi4788kevyo" class="animable"></path><path d="M144.18,171.46a.32.32,0,0,1-.3,0,2.5,2.5,0,0,0-2.25-.3.32.32,0,1,1-.26-.58,3.14,3.14,0,0,1,2.88.35.3.3,0,0,1,.1.42h0A.3.3,0,0,1,144.18,171.46Z" style="fill: rgb(38, 50, 56); transform-origin: 142.772px 170.938px;" id="elof6voilioc" class="animable"></path><path d="M129.44,181.39s1-3.33,0-5.9.23-7.69.23-7.69a13.25,13.25,0,0,0,8.06-3.15c3.35-3.11-3.85-8.16-5.15-7.47s.86,2.8.86,2.8-5.3-2-6.09-.66,1.82,1.94,1.82,1.94-5.89-.63-6.15.68,2.56,2.33,2.56,2.33-3.86,0-4.26,1.06,2.36,2.24,2.36,2.24-1.91.15-2.39,1.05,3.44,3.68,4.29,11.38Z" style="fill: rgb(38, 50, 56); transform-origin: 129.93px 169.253px;" id="el9s3d6439d9s" class="animable"></path><path d="M123.92,182.25a6.38,6.38,0,0,0,4.39,2c2.22,0,2.78-2.07,1.71-3.87-1-1.62-3.29-3.6-5.29-2.79A2.82,2.82,0,0,0,123.92,182.25Z" style="fill: rgb(255, 195, 189); transform-origin: 126.782px 180.826px;" id="elyhit6w51pu" class="animable"></path><path d="M141.86,165.6s-4.14,4.05-18.84,7.76l.8,2.51s13.1-3.74,19.14-7.75Z" style="fill: rgb(227, 155, 73); transform-origin: 132.99px 170.735px;" id="elklelre446e" class="animable"></path><g id="elzakkr4uuoej"><path d="M141.86,165.6s-4.14,4.05-18.84,7.76l.8,2.51s13.1-3.74,19.14-7.75Z" style="fill: rgb(255, 255, 255); opacity: 0.4; transform-origin: 132.99px 170.735px;" class="animable"></path></g><polygon points="128.77 172.88 125.9 171.79 124.64 172.94 127.95 174.89 128.77 172.88" style="fill: rgb(227, 155, 73); transform-origin: 126.705px 173.34px;" id="elopq1aeypkv" class="animable"></polygon><g id="el4a90bwnwpvy"><g style="opacity: 0.6; transform-origin: 126.705px 173.34px;" class="animable"><polygon points="128.77 172.88 125.9 171.79 124.64 172.94 127.95 174.89 128.77 172.88" style="fill: rgb(255, 255, 255); transform-origin: 126.705px 173.34px;" id="el303ojm0nddy" class="animable"></polygon></g></g><path d="M142.41,189.18a3.86,3.86,0,0,1-3.17,1.15s-2.15,2.16-3.91-.32c-1.48-2.09-1.26-6.57-.82-8.53.63-2.85,7.46-.63,7.46-.63,1.82-.5,2.19,2.48,2.19,5.07C144.15,186.12,144,190,142.41,189.18Z" style="fill: rgb(38, 50, 56); transform-origin: 139.171px 185.614px;" id="eldctop9vedko" class="animable"></path><g id="elfx1woyx1b5"><path d="M142.41,189.18a3.86,3.86,0,0,1-3.17,1.15s-2.15,2.16-3.91-.32c-1.48-2.09-1.26-6.57-.82-8.53.63-2.85,7.46-.63,7.46-.63,1.82-.5,2.19,2.48,2.19,5.07C144.15,186.12,144,190,142.41,189.18Z" style="fill: rgb(255, 255, 255); opacity: 0.5; transform-origin: 139.171px 185.614px;" class="animable"></path></g><path d="M141.06,190.72s2.62,7.84-.11,21.84l4.36,4.28s2.8-12.72,1.1-23.41Z" style="fill: rgb(227, 155, 73); transform-origin: 143.954px 203.78px;" id="elcxyrt0lvkmj" class="animable"></path><path d="M168.34,248.39S158.06,215.21,123.68,195l-3.11,4.34s24.09,13,46,53.6Z" style="fill: rgb(227, 155, 73); transform-origin: 144.455px 223.97px;" id="elhopfjzhmnea" class="animable"></path><g id="elj8v5wvx41ap"><path d="M168.34,248.39S158.06,215.21,123.68,195l-3.11,4.34s24.09,13,46,53.6Z" style="fill: rgb(255, 255, 255); opacity: 0.2; transform-origin: 144.455px 223.97px;" class="animable"></path></g><polygon points="146.14 239.97 146.45 239.13 123.53 230.04 123 231.45 146.14 239.97" style="fill: rgb(38, 50, 56); transform-origin: 134.725px 235.005px;" id="elhitx0ebwjy" class="animable"></polygon><polygon points="145.52 241.39 145.16 242.22 122.36 232.81 122.96 231.44 145.52 241.39" style="fill: rgb(38, 50, 56); transform-origin: 133.94px 236.83px;" id="elhl4q68lslss" class="animable"></polygon><path d="M112.72,206.87c8.25,9.1,3.55,12.53,3.55,12.53s-12,9.25-10.92,13S123,235.46,123,235.46s3-3.06,4.27-3.33,4,.32,4.85,1.23c1.09,1.16,2,4.88,1.2,6.24-.66,1.11-3.66,1.39-4.95,1.53a29.36,29.36,0,0,1-4.4-.38c-1.89.28-27.38,3.83-29.39-3.45C92.44,229.73,112.72,206.87,112.72,206.87Z" style="fill: rgb(255, 195, 189); transform-origin: 114.023px 224.365px;" id="elfdknnqt878t" class="animable"></path><path d="M112.72,204.78s-12.64,13.46-18.34,27.61L106.64,230s-.92-1,8.29-8.35C118.07,219.21,124.63,213,112.72,204.78Z" style="fill: rgb(227, 155, 73); transform-origin: 106.98px 218.585px;" id="elsiaiqc2tzle" class="animable"></path><g id="el2ulybt4up89"><path d="M112.72,204.78s-12.64,13.46-18.34,27.61L106.64,230s-.92-1,8.29-8.35C118.07,219.21,124.63,213,112.72,204.78Z" style="fill: rgb(255, 255, 255); opacity: 0.6; transform-origin: 106.98px 218.585px;" class="animable"></path></g><path d="M106.44,232.39a13.77,13.77,0,0,0-11.77,6.14s-1.38-.53-1-2.82c0,0-1-1.75.69-4.18,0,0,5-3.45,12.91-2.09,0,0,.39,1-1,1.43C106.31,230.87,107.53,232.4,106.44,232.39Z" style="fill: rgb(227, 155, 73); transform-origin: 100.348px 233.826px;" id="eltmviowm6m69" class="animable"></path><g id="elm2oy3fwfd5"><path d="M106.44,232.39a13.77,13.77,0,0,0-11.77,6.14s-1.38-.53-1-2.82c0,0-1-1.75.69-4.18,0,0,5-3.45,12.91-2.09,0,0,.39,1-1,1.43C106.31,230.87,107.53,232.4,106.44,232.39Z" style="fill: rgb(255, 255, 255); opacity: 0.7; transform-origin: 100.348px 233.826px;" class="animable"></path></g><path d="M142.36,182.31a38.82,38.82,0,0,0-6.62.2c.72,1.27,1.9,2.24,4.39,2S142.36,182.31,142.36,182.31Z" style="fill: rgb(38, 50, 56); transform-origin: 139.054px 183.399px;" id="elgy7a6xxu8s" class="animable"></path><path d="M138.85,183.59a5.08,5.08,0,0,1,2.78.4,2.81,2.81,0,0,1-1.5.53,5,5,0,0,1-2.78-.4A2.81,2.81,0,0,1,138.85,183.59Z" style="fill: rgb(255, 86, 82); transform-origin: 139.49px 184.056px;" id="elqdab2njz01" class="animable"></path><path d="M142.13,182.29a.9.9,0,0,1-.68.71,27.22,27.22,0,0,1-4.33,0,1.4,1.4,0,0,1-1.16-.55A43.83,43.83,0,0,1,142.13,182.29Z" style="fill: rgb(255, 255, 255); transform-origin: 139.045px 182.666px;" id="el8wl80fh5me9" class="animable"></path><polygon points="127.8 170.92 127.35 175.57 129.44 175.5 130.19 171.28 127.8 170.92" style="fill: rgb(227, 155, 73); transform-origin: 128.77px 173.245px;" id="elxzsrycdh6oc" class="animable"></polygon><g id="el3di3kl8q5nc"><polygon points="127.8 170.92 127.35 175.57 129.44 175.5 130.19 171.28 127.8 170.92" style="fill: rgb(255, 255, 255); opacity: 0.7; transform-origin: 128.77px 173.245px;" class="animable"></polygon></g></g><defs>     <filter id="active" height="200%">         <feMorphology in="SourceAlpha" result="DILATED" operator="dilate" radius="2"></feMorphology>                <feFlood flood-color="#32DFEC" flood-opacity="1" result="PINK"></feFlood>        <feComposite in="PINK" in2="DILATED" operator="in" result="OUTLINE"></feComposite>        <feMerge>            <feMergeNode in="OUTLINE"></feMergeNode>            <feMergeNode in="SourceGraphic"></feMergeNode>        </feMerge>    </filter>    <filter id="hover" height="200%">        <feMorphology in="SourceAlpha" result="DILATED" operator="dilate" radius="2"></feMorphology>                <feFlood flood-color="#ff0000" flood-opacity="0.5" result="PINK"></feFlood>        <feComposite in="PINK" in2="DILATED" operator="in" result="OUTLINE"></feComposite>        <feMerge>            <feMergeNode in="OUTLINE"></feMergeNode>            <feMergeNode in="SourceGraphic"></feMergeNode>        </feMerge>            <feColorMatrix type="matrix" values="0   0   0   0   0                0   1   0   0   0                0   0   0   0   0                0   0   0   1   0 "></feColorMatrix>    </filter></defs></svg>